<svg width="30" height="30" viewBox="0 0 30 30" fill="none" xmlns="http://www.w3.org/2000/svg">
<path fill-rule="evenodd" clip-rule="evenodd" d="M4.0625 8.75V24.375C4.0625 24.7894 4.22712 25.1868 4.52015 25.4799C4.81317 25.7729 5.2106 25.9375 5.625 25.9375H24.375C24.7894 25.9375 25.1868 25.7729 25.4799 25.4799C25.7729 25.1868 25.9375 24.7894 25.9375 24.375V8.75H4.0625ZM5.625 4.0625C4.7962 4.0625 4.00134 4.39174 3.41529 4.97779C2.82924 5.56384 2.5 6.3587 2.5 7.1875L2.5 24.375C2.5 25.2038 2.82924 25.9987 3.41529 26.5847C4.00134 27.1708 4.7962 27.5 5.625 27.5H24.375C25.2038 27.5 25.9987 27.1708 26.5847 26.5847C27.1708 25.9987 27.5 25.2038 27.5 24.375V7.1875C27.5 6.3587 27.1708 5.56384 26.5847 4.97779C25.9987 4.39174 25.2038 4.0625 24.375 4.0625H5.625Z" fill="#010620"/>
<path fill-rule="evenodd" clip-rule="evenodd" d="M7.96875 2.5C8.17595 2.5 8.37466 2.58231 8.52118 2.72882C8.66769 2.87534 8.75 3.07405 8.75 3.28125V4.0625C8.75 4.2697 8.66769 4.46841 8.52118 4.61493C8.37466 4.76144 8.17595 4.84375 7.96875 4.84375C7.76155 4.84375 7.56284 4.76144 7.41632 4.61493C7.26981 4.46841 7.1875 4.2697 7.1875 4.0625V3.28125C7.1875 3.07405 7.26981 2.87534 7.41632 2.72882C7.56284 2.58231 7.76155 2.5 7.96875 2.5ZM22.0313 2.5C22.2385 2.5 22.4372 2.58231 22.5837 2.72882C22.7302 2.87534 22.8125 3.07405 22.8125 3.28125V4.0625C22.8125 4.2697 22.7302 4.46841 22.5837 4.61493C22.4372 4.76144 22.2385 4.84375 22.0313 4.84375C21.8241 4.84375 21.6253 4.76144 21.4788 4.61493C21.3323 4.46841 21.25 4.2697 21.25 4.0625V3.28125C21.25 3.07405 21.3323 2.87534 21.4788 2.72882C21.6253 2.58231 21.8241 2.5 22.0313 2.5Z" fill="#010620"/>
<path d="M19.6875 12.6562C19.6875 12.449 19.7698 12.2503 19.9163 12.1038C20.0628 11.9573 20.2615 11.875 20.4688 11.875H22.0312C22.2385 11.875 22.4372 11.9573 22.5837 12.1038C22.7302 12.2503 22.8125 12.449 22.8125 12.6562V14.2187C22.8125 14.426 22.7302 14.6247 22.5837 14.7712C22.4372 14.9177 22.2385 15 22.0312 15H20.4688C20.2615 15 20.0628 14.9177 19.9163 14.7712C19.7698 14.6247 19.6875 14.426 19.6875 14.2187V12.6562ZM15 12.6562C15 12.449 15.0823 12.2503 15.2288 12.1038C15.3753 11.9573 15.574 11.875 15.7812 11.875H17.3438C17.551 11.875 17.7497 11.9573 17.8962 12.1038C18.0427 12.2503 18.125 12.449 18.125 12.6562V14.2187C18.125 14.426 18.0427 14.6247 17.8962 14.7712C17.7497 14.9177 17.551 15 17.3438 15H15.7812C15.574 15 15.3753 14.9177 15.2288 14.7712C15.0823 14.6247 15 14.426 15 14.2187V12.6562ZM7.1875 17.3437C7.1875 17.1365 7.26981 16.9378 7.41632 16.7913C7.56284 16.6448 7.76155 16.5625 7.96875 16.5625H9.53125C9.73845 16.5625 9.93716 16.6448 10.0837 16.7913C10.2302 16.9378 10.3125 17.1365 10.3125 17.3437V18.9062C10.3125 19.1134 10.2302 19.3122 10.0837 19.4587C9.93716 19.6052 9.73845 19.6875 9.53125 19.6875H7.96875C7.76155 19.6875 7.56284 19.6052 7.41632 19.4587C7.26981 19.3122 7.1875 19.1134 7.1875 18.9062V17.3437ZM11.875 17.3437C11.875 17.1365 11.9573 16.9378 12.1038 16.7913C12.2503 16.6448 12.449 16.5625 12.6562 16.5625H14.2188C14.426 16.5625 14.6247 16.6448 14.7712 16.7913C14.9177 16.9378 15 17.1365 15 17.3437V18.9062C15 19.1134 14.9177 19.3122 14.7712 19.4587C14.6247 19.6052 14.426 19.6875 14.2188 19.6875H12.6562C12.449 19.6875 12.2503 19.6052 12.1038 19.4587C11.9573 19.3122 11.875 19.1134 11.875 18.9062V17.3437Z" fill="#010620"/>
</svg>
