<svg width="32" height="32" viewBox="0 0 32 32" fill="none" xmlns="http://www.w3.org/2000/svg">
<path d="M25.3332 4H6.6665C5.60564 4 4.58822 4.42143 3.83808 5.17157C3.08793 5.92172 2.6665 6.93913 2.6665 8V28C2.66691 28.2363 2.73009 28.4682 2.84957 28.672C2.96905 28.8758 3.14055 29.0442 3.3465 29.16C3.54578 29.2729 3.77079 29.3326 3.99984 29.3333C4.23915 29.3333 4.47403 29.2688 4.67984 29.1467L10.6665 25.52C10.8878 25.3883 11.1425 25.3234 11.3998 25.3333H25.3332C26.394 25.3333 27.4115 24.9119 28.1616 24.1618C28.9117 23.4116 29.3332 22.3942 29.3332 21.3333V8C29.3332 6.93913 28.9117 5.92172 28.1616 5.17157C27.4115 4.42143 26.394 4 25.3332 4ZM10.6665 16C10.4028 16 10.145 15.9218 9.92574 15.7753C9.70648 15.6288 9.53558 15.4205 9.43466 15.1769C9.33375 14.9333 9.30734 14.6652 9.35879 14.4065C9.41024 14.1479 9.53723 13.9103 9.7237 13.7239C9.91017 13.5374 10.1477 13.4104 10.4064 13.359C10.665 13.3075 10.9331 13.3339 11.1767 13.4348C11.4204 13.5357 11.6286 13.7066 11.7751 13.9259C11.9216 14.1452 11.9998 14.403 11.9998 14.6667C11.9998 15.0203 11.8594 15.3594 11.6093 15.6095C11.3593 15.8595 11.0201 16 10.6665 16ZM15.9998 16C15.7361 16 15.4783 15.9218 15.2591 15.7753C15.0398 15.6288 14.8689 15.4205 14.768 15.1769C14.6671 14.9333 14.6407 14.6652 14.6921 14.4065C14.7436 14.1479 14.8706 13.9103 15.057 13.7239C15.2435 13.5374 15.4811 13.4104 15.7397 13.359C15.9984 13.3075 16.2664 13.3339 16.5101 13.4348C16.7537 13.5357 16.962 13.7066 17.1085 13.9259C17.255 14.1452 17.3332 14.403 17.3332 14.6667C17.3332 15.0203 17.1927 15.3594 16.9426 15.6095C16.6926 15.8595 16.3535 16 15.9998 16ZM21.3332 16C21.0695 16 20.8117 15.9218 20.5924 15.7753C20.3731 15.6288 20.2022 15.4205 20.1013 15.1769C20.0004 14.9333 19.974 14.6652 20.0255 14.4065C20.0769 14.1479 20.2039 13.9103 20.3904 13.7239C20.5768 13.5374 20.8144 13.4104 21.0731 13.359C21.3317 13.3075 21.5998 13.3339 21.8434 13.4348C22.087 13.5357 22.2953 13.7066 22.4418 13.9259C22.5883 14.1452 22.6665 14.403 22.6665 14.6667C22.6665 15.0203 22.526 15.3594 22.276 15.6095C22.0259 15.8595 21.6868 16 21.3332 16Z" fill="#010620" fill-opacity="0.75"/>
</svg>
