<svg width="32" height="32" viewBox="0 0 32 32" fill="none" xmlns="http://www.w3.org/2000/svg">
<path d="M15.9998 2.66663C8.63674 2.66663 2.6665 8.63686 2.6665 16C2.6665 23.3631 8.63674 29.3333 15.9998 29.3333C23.3629 29.3333 29.3332 23.3631 29.3332 16C29.3332 8.63686 23.3629 2.66663 15.9998 2.66663ZM21.7141 16.7142C21.7141 16.8452 21.607 16.9523 21.476 16.9523H16.9522V21.4762C16.9522 21.6071 16.8451 21.7142 16.7141 21.7142H15.2856C15.1546 21.7142 15.0475 21.6071 15.0475 21.4762V16.9523H10.5236C10.3927 16.9523 10.2856 16.8452 10.2856 16.7142V15.2857C10.2856 15.1547 10.3927 15.0476 10.5236 15.0476H15.0475V10.5238C15.0475 10.3928 15.1546 10.2857 15.2856 10.2857H16.7141C16.8451 10.2857 16.9522 10.3928 16.9522 10.5238V15.0476H21.476C21.607 15.0476 21.7141 15.1547 21.7141 15.2857V16.7142Z" fill="black"/>
</svg>
