<svg width="32" height="33" viewBox="0 0 32 33" fill="none" xmlns="http://www.w3.org/2000/svg">
<path d="M16.0081 3.34843C8.74317 3.34843 2.85254 9.23906 2.85254 16.504C2.85254 23.7689 8.74317 29.6595 16.0081 29.6595C23.273 29.6595 29.1636 23.7689 29.1636 16.504C29.1636 9.23906 23.273 3.34843 16.0081 3.34843ZM21.6462 17.2087C21.6462 17.3379 21.5405 17.4437 21.4113 17.4437H16.9478V21.9072C16.9478 22.0364 16.8421 22.1421 16.7129 22.1421H15.3033C15.1741 22.1421 15.0684 22.0364 15.0684 21.9072V17.4437H10.6049C10.4757 17.4437 10.37 17.3379 10.37 17.2087V15.7992C10.37 15.67 10.4757 15.5643 10.6049 15.5643H15.0684V11.1008C15.0684 10.9716 15.1741 10.8659 15.3033 10.8659H16.7129C16.8421 10.8659 16.9478 10.9716 16.9478 11.1008V15.5643H21.4113C21.5405 15.5643 21.6462 15.67 21.6462 15.7992V17.2087Z" fill="#F9F9F9"/>
</svg>
