<svg width="24" height="24" viewBox="0 0 24 24" fill="none" xmlns="http://www.w3.org/2000/svg">
<path d="M12 2C6.48606 2 2 6.48606 2 12C2 17.5139 6.48606 22 12 22C17.5139 22 22 17.5139 22 12C22 6.48606 17.5139 2 12 2ZM15.6207 14.5332C15.6951 14.6039 15.7546 14.6888 15.7957 14.7829C15.8368 14.877 15.8587 14.9783 15.86 15.081C15.8613 15.1837 15.8421 15.2856 15.8034 15.3807C15.7647 15.4758 15.7074 15.5622 15.6348 15.6348C15.5622 15.7074 15.4758 15.7647 15.3807 15.8034C15.2856 15.8421 15.1837 15.8613 15.081 15.86C14.9783 15.8587 14.877 15.8368 14.7829 15.7957C14.6888 15.7546 14.6039 15.6951 14.5332 15.6207L12 13.088L9.46683 15.6207C9.32139 15.7588 9.12774 15.8347 8.92716 15.8322C8.72657 15.8296 8.53492 15.7488 8.39307 15.6069C8.25123 15.4651 8.1704 15.2734 8.16784 15.0728C8.16527 14.8723 8.24116 14.6786 8.37933 14.5332L10.912 12L8.37933 9.46683C8.24116 9.32139 8.16527 9.12774 8.16784 8.92716C8.1704 8.72657 8.25123 8.53492 8.39307 8.39307C8.53492 8.25123 8.72657 8.1704 8.92716 8.16784C9.12774 8.16527 9.32139 8.24116 9.46683 8.37933L12 10.912L14.5332 8.37933C14.6786 8.24116 14.8723 8.16527 15.0728 8.16784C15.2734 8.1704 15.4651 8.25123 15.6069 8.39307C15.7488 8.53492 15.8296 8.72657 15.8322 8.92716C15.8347 9.12774 15.7588 9.32139 15.6207 9.46683L13.088 12L15.6207 14.5332Z" fill="#F9F9F9"/>
</svg>
