<svg width="24" height="24" viewBox="0 0 24 24" fill="none" xmlns="http://www.w3.org/2000/svg">
<path d="M11.9082 14.5479C12.5896 14.5479 13.243 14.2773 13.7248 13.7955C14.2065 13.3137 14.4772 12.6603 14.4772 11.979C14.4772 11.9038 14.4738 11.8292 14.4673 11.7556L11.6848 14.5381C11.7585 14.5445 11.8328 14.5479 11.9082 14.5479ZM20.4115 4.03266L19.4316 3.0537C19.3972 3.01932 19.3505 3 19.3019 3C19.2533 3 19.2066 3.01932 19.1722 3.0537L16.6647 5.56187C15.2814 4.85495 13.7265 4.50149 12 4.50149C7.59148 4.50149 4.3023 6.79749 2.13245 11.3895C2.04523 11.5742 2 11.7759 2 11.9801C2 12.1844 2.04523 12.3861 2.13245 12.5708C2.99947 14.397 4.04349 15.8608 5.26451 16.9621L2.838 19.3877C2.80361 19.4221 2.78429 19.4687 2.78429 19.5174C2.78429 19.566 2.80361 19.6127 2.838 19.6471L3.81718 20.6263C3.85159 20.6607 3.89824 20.68 3.94689 20.68C3.99554 20.68 4.04219 20.6607 4.0766 20.6263L20.4115 4.29231C20.4285 4.27526 20.4421 4.25503 20.4513 4.23275C20.4605 4.21047 20.4653 4.1866 20.4653 4.16248C20.4653 4.13837 20.4605 4.11449 20.4513 4.09221C20.4421 4.06994 20.4285 4.0497 20.4115 4.03266ZM7.87131 11.979C7.87125 11.2817 8.05179 10.5963 8.39535 9.98955C8.73891 9.38279 9.23377 8.87536 9.83173 8.5167C10.4297 8.15803 11.1103 7.96036 11.8074 7.94295C12.5045 7.92553 13.1941 8.08896 13.8093 8.41731L12.6941 9.53251C12.2443 9.3885 11.7636 9.37116 11.3046 9.48239C10.8457 9.59361 10.4262 9.82911 10.0923 10.163C9.75836 10.497 9.52287 10.9164 9.41164 11.3754C9.30042 11.8343 9.31776 12.3151 9.46177 12.7648L8.34657 13.88C8.03362 13.2953 7.87034 12.6422 7.87131 11.979Z" fill="#010620"/>
<path d="M21.8675 11.3872C21.0602 9.68678 20.0992 8.30023 18.9846 7.22754L15.6784 10.5339C15.9571 11.2624 16.0189 12.0561 15.8563 12.8189C15.6937 13.5818 15.3136 14.2813 14.7621 14.8328C14.2106 15.3843 13.5111 15.7644 12.7482 15.927C11.9854 16.0896 11.1917 16.0278 10.4632 15.7491L7.65894 18.5534C8.95993 19.1554 10.407 19.4565 12 19.4565C16.4085 19.4565 19.6977 17.1604 21.8675 12.5684C21.9548 12.3838 22 12.1821 22 11.9778C22 11.7736 21.9548 11.5719 21.8675 11.3872Z" fill="#010620"/>
</svg>
