<svg width="129" height="91" viewBox="0 0 129 91" fill="none" xmlns="http://www.w3.org/2000/svg">
<path d="M0.514648 0.314301V90.5184H149.086V0.314301H0.514648ZM21.7391 10.9265H127.862C127.862 13.7411 128.98 16.4404 130.97 18.4305C132.96 20.4207 135.659 21.5388 138.474 21.5388V69.2939C135.659 69.2939 132.96 70.412 130.97 72.4022C128.98 74.3923 127.862 77.0916 127.862 79.9061H21.7391C21.7391 77.0916 20.6211 74.3923 18.6309 72.4022C16.6407 70.412 13.9414 69.2939 11.1269 69.2939V21.5388C13.9414 21.5388 16.6407 20.4207 18.6309 18.4305C20.6211 16.4404 21.7391 13.7411 21.7391 10.9265ZM74.8003 21.5388C63.0685 21.5388 53.5759 32.2359 53.5759 45.4163C53.5759 58.5968 63.0685 69.2939 74.8003 69.2939C86.5322 69.2939 96.0248 58.5968 96.0248 45.4163C96.0248 32.2359 86.5322 21.5388 74.8003 21.5388ZM74.8003 32.151C80.6477 32.151 85.4126 38.0992 85.4126 45.4163C85.4126 52.7335 80.6477 58.6817 74.8003 58.6817C68.953 58.6817 64.1881 52.7335 64.1881 45.4163C64.1881 38.0992 68.953 32.151 74.8003 32.151ZM35.0044 37.4572C33.9589 37.4575 32.9236 37.6638 31.9578 38.0642C30.9919 38.4647 30.1144 39.0514 29.3753 39.791C28.6363 40.5306 28.0501 41.4085 27.6503 42.3746C27.2505 43.3407 27.0449 44.3761 27.0453 45.4217C27.0456 46.4672 27.2519 47.5025 27.6523 48.4683C28.0528 49.4342 28.6395 50.3117 29.3791 51.0507C30.1187 51.7898 30.9966 52.376 31.9627 52.7758C32.9288 53.1756 33.9642 53.3812 35.0097 53.3808C37.1214 53.3801 39.1462 52.5406 40.6388 51.047C42.1315 49.5534 42.9696 47.528 42.9689 45.4163C42.9682 43.3047 42.1287 41.2799 40.6351 39.7873C39.1414 38.2946 37.116 37.4565 35.0044 37.4572ZM114.596 37.4572C113.551 37.4575 112.515 37.6638 111.55 38.0642C110.584 38.4647 109.706 39.0514 108.967 39.791C108.228 40.5306 107.642 41.4085 107.242 42.3746C106.842 43.3407 106.637 44.3761 106.637 45.4217C106.637 46.4672 106.844 47.5025 107.244 48.4683C107.645 49.4342 108.231 50.3117 108.971 51.0507C109.71 51.7898 110.588 52.376 111.555 52.7758C112.521 53.1756 113.556 53.3812 114.602 53.3808C116.713 53.3801 118.738 52.5406 120.231 51.047C121.723 49.5534 122.561 47.528 122.561 45.4163C122.56 43.3047 121.721 41.2799 120.227 39.7873C118.733 38.2946 116.708 37.4565 114.596 37.4572Z" fill="#5784BA" fill-opacity="0.25"/>
</svg>
