<svg width="24" height="24" viewBox="0 0 24 24" fill="none" xmlns="http://www.w3.org/2000/svg">
<path d="M6.52382 2.52618C6.35777 2.69189 6.22604 2.88872 6.13615 3.10541C6.04627 3.3221 6 3.55438 6 3.78897C6 4.02356 6.04627 4.25584 6.13615 4.47253C6.22604 4.68922 6.35777 4.88605 6.52382 5.05176L13.4736 12.0016L6.52382 18.9514C6.18891 19.2863 6.00076 19.7405 6.00076 20.2141C6.00076 20.6878 6.18891 21.142 6.52382 21.4769C6.85873 21.8119 7.31297 22 7.78661 22C8.26025 22 8.71448 21.8119 9.0494 21.4769L17.2709 13.2554C17.437 13.0897 17.5687 12.8928 17.6586 12.6762C17.7485 12.4595 17.7948 12.2272 17.7948 11.9926C17.7948 11.758 17.7485 11.5257 17.6586 11.309C17.5687 11.0924 17.437 10.8955 17.2709 10.7298L9.0494 2.50827C8.36874 1.82762 7.22239 1.82762 6.52382 2.52618Z" fill="#010620"/>
</svg>
