<svg width="32" height="32" viewBox="0 0 32 32" fill="none" xmlns="http://www.w3.org/2000/svg">
<path d="M14.6455 29.3337C15.1502 29.3221 15.6346 29.1324 16.0129 28.798C16.3912 28.4637 16.6391 28.0063 16.7128 27.5068H12.498C12.5737 28.0199 12.8332 28.488 13.2283 28.8241C13.6233 29.1601 14.1269 29.3412 14.6455 29.3337Z" fill="#010620" fill-opacity="0.75"/>
<path d="M26.5445 24.4057L26.2721 24.1653C25.4992 23.4767 24.8227 22.687 24.2609 21.8176C23.6473 20.6177 23.2795 19.3074 23.1792 17.9634V14.0051C23.1759 13.5243 23.133 13.0446 23.0509 12.5709C21.6937 12.2919 20.4745 11.5525 19.5999 10.4778C18.7252 9.40305 18.2488 8.05911 18.2513 6.67347V6.16867C17.4147 5.75697 16.5159 5.48623 15.5911 5.3674V4.35779C15.5911 4.07409 15.4784 3.802 15.2778 3.60139C15.0772 3.40079 14.8051 3.28809 14.5214 3.28809C14.2377 3.28809 13.9656 3.40079 13.765 3.60139C13.5644 3.802 13.4517 4.07409 13.4517 4.35779V5.40746C11.3809 5.69957 9.48582 6.73096 8.11615 8.31123C6.74649 9.89149 5.99478 11.9139 5.99981 14.0051V17.9634C5.89945 19.3074 5.53169 20.6177 4.91809 21.8176C4.36591 22.6848 3.70031 23.4744 2.93894 24.1653L2.6665 24.4057V26.6653H26.5445V24.4057Z" fill="#010620" fill-opacity="0.75"/>
<path d="M24.2608 10.6797C26.4734 10.6797 28.2672 8.88603 28.2672 6.67337C28.2672 4.46071 26.4734 2.66699 24.2608 2.66699C22.0481 2.66699 20.2544 4.46071 20.2544 6.67337C20.2544 8.88603 22.0481 10.6797 24.2608 10.6797Z" fill="#010620" fill-opacity="0.75"/>
</svg>
