<svg width="32" height="32" viewBox="0 0 32 32" fill="none" xmlns="http://www.w3.org/2000/svg">
<path d="M28.8431 23.5557L22.7582 18.0231C22.4706 17.7617 22.0926 17.6223 21.7041 17.6343C21.3156 17.6463 20.947 17.8088 20.676 18.0875L17.094 21.7714C16.2318 21.6067 14.4984 21.0663 12.7141 19.2865C10.9298 17.5007 10.3894 15.7628 10.2292 14.9066L13.9101 11.3231C14.1891 11.0523 14.3519 10.6836 14.3639 10.295C14.3759 9.90639 14.2362 9.52835 13.9744 9.24088L8.44343 3.15751C8.18154 2.86915 7.81755 2.69423 7.42877 2.66991C7.03999 2.6456 6.65704 2.7738 6.36126 3.02728L3.113 5.813C2.8542 6.07273 2.69974 6.41842 2.6789 6.78448C2.65645 7.1587 2.22834 16.0233 9.10206 22.9C15.0986 28.8951 22.61 29.3337 24.6787 29.3337C24.9811 29.3337 25.1667 29.3247 25.2161 29.3217C25.5821 29.3012 25.9276 29.146 26.1861 28.8861L28.9703 25.6363C29.2248 25.3415 29.3539 24.9589 29.3302 24.5701C29.3064 24.1813 29.1316 23.8173 28.8431 23.5557Z" fill="#3F4356"/>
</svg>
