<svg width="40" height="40" viewBox="0 0 40 40" fill="none" xmlns="http://www.w3.org/2000/svg">
<path d="M27.2907 2.99718C27.6172 2.2358 27.266 1.34813 26.4823 1.0796C22.2477 -0.371324 17.6324 -0.363953 13.3812 1.12697C8.65651 2.78392 4.72514 6.15273 2.36387 10.5678C0.00260162 14.9828 -0.616814 20.1229 0.62801 24.9725C1.87284 29.8221 4.89135 34.0284 9.08715 36.7604C13.283 39.4923 18.3508 40.5511 23.2895 39.7276C28.2281 38.9041 32.6782 36.2583 35.7606 32.3127C38.843 28.3672 40.3334 23.4091 39.9373 18.4179C39.581 13.927 37.7206 9.70322 34.6806 6.41763C34.118 5.80955 33.1641 5.84749 32.5999 6.45407C32.0357 7.06066 32.0757 8.00568 32.6302 8.62115C35.1244 11.3894 36.6498 14.9132 36.9467 18.6553C37.2834 22.8977 36.0165 27.1121 33.3965 30.4658C30.7765 33.8195 26.9939 36.0685 22.796 36.7685C18.5982 37.4684 14.2905 36.5684 10.7241 34.2463C7.15765 31.9242 4.59191 28.3488 3.53381 24.2266C2.47571 20.1045 3.00221 15.7354 5.00929 11.9826C7.01637 8.22982 10.358 5.36633 14.374 3.95792C17.9163 2.71563 21.756 2.68511 25.2966 3.84614C26.0838 4.10427 26.9642 3.75857 27.2907 2.99718Z" fill="white"/>
<path d="M20 1.5C20 0.671573 20.6725 -0.00585205 21.4986 0.0562201C24.6166 0.290499 27.6437 1.25332 30.3327 2.87589C33.4509 4.75739 35.9961 7.45459 37.6938 10.6765C39.3916 13.8984 40.1774 17.5227 39.9664 21.1584C39.7555 24.7941 38.5558 28.3033 36.4969 31.3072C34.4379 34.3112 31.5978 36.6959 28.283 38.2042C24.9682 39.7124 21.3044 40.287 17.687 39.8658C14.0696 39.4446 10.6359 38.0437 7.75625 35.8143C5.2729 33.8916 3.28293 31.4156 1.93968 28.5921C1.58378 27.8441 1.97298 26.9724 2.74563 26.6736C3.51828 26.3747 4.38096 26.7625 4.74672 27.5059C5.88632 29.8217 7.54155 31.854 9.59281 33.4421C12.0405 35.3372 14.9592 36.5279 18.034 36.8859C21.1088 37.2439 24.2229 36.7556 27.0406 35.4735C29.8582 34.1915 32.2722 32.1645 34.0223 29.6111C35.7725 27.0578 36.7922 24.075 36.9715 20.9847C37.1508 17.8943 36.4828 14.8136 35.0398 12.075C33.5967 9.3364 31.4332 7.04378 28.7828 5.44451C26.5616 4.10426 24.0691 3.29357 21.4981 3.06613C20.6729 2.99313 20 2.32843 20 1.5Z" fill="#5784BA"/>
<path d="M14.8 19.6C14.104 19.6 13.512 19.856 13.192 20.336C13.184 20.264 13.184 20.2 13.184 20.136C13.184 18.736 13.912 18.024 15.048 18.024C15.448 18.024 15.832 18.096 16.12 18.288L16.424 17.664C16.064 17.44 15.56 17.336 15.032 17.336C13.464 17.336 12.384 18.36 12.384 20.272C12.384 22.056 13.232 23.064 14.736 23.064C15.848 23.064 16.72 22.376 16.72 21.296C16.72 20.264 15.912 19.6 14.8 19.6ZM14.704 22.416C13.84 22.416 13.376 21.912 13.376 21.336C13.376 20.72 13.904 20.248 14.664 20.248C15.448 20.248 15.944 20.672 15.944 21.328C15.944 21.992 15.432 22.416 14.704 22.416ZM19.5375 17.336C18.4255 17.336 17.5615 18.024 17.5615 19.104C17.5615 20.136 18.3615 20.8 19.4735 20.8C20.1695 20.8 20.7615 20.552 21.0895 20.064V20.264C21.0895 21.664 20.3695 22.376 19.2335 22.376C18.8255 22.376 18.4495 22.304 18.1535 22.112L17.8495 22.736C18.2095 22.96 18.7135 23.064 19.2415 23.064C20.8095 23.064 21.8895 22.04 21.8895 20.128C21.8895 18.344 21.0415 17.336 19.5375 17.336ZM19.6095 20.152C18.8255 20.152 18.3375 19.728 18.3375 19.072C18.3375 18.408 18.8415 17.984 19.5695 17.984C20.4415 17.984 20.9055 18.488 20.9055 19.064C20.9055 19.68 20.3775 20.152 19.6095 20.152Z" fill="#5784BA"/>
<path d="M24.2 21.056C24.782 21.056 25.172 20.6 25.172 19.91C25.172 19.22 24.782 18.764 24.2 18.764C23.618 18.764 23.222 19.226 23.222 19.91C23.222 20.594 23.618 21.056 24.2 21.056ZM23.864 23H24.326L27.194 18.8H26.732L23.864 23ZM24.2 20.714C23.84 20.714 23.612 20.408 23.612 19.91C23.612 19.412 23.84 19.106 24.2 19.106C24.566 19.106 24.788 19.406 24.788 19.91C24.788 20.414 24.566 20.714 24.2 20.714ZM26.858 23.036C27.44 23.036 27.836 22.574 27.836 21.89C27.836 21.206 27.44 20.744 26.858 20.744C26.276 20.744 25.886 21.206 25.886 21.89C25.886 22.574 26.276 23.036 26.858 23.036ZM26.858 22.694C26.492 22.694 26.27 22.394 26.27 21.89C26.27 21.386 26.492 21.086 26.858 21.086C27.218 21.086 27.446 21.392 27.446 21.89C27.446 22.388 27.218 22.694 26.858 22.694Z" fill="#5784BA"/>
</svg>
