<svg width="40" height="40" viewBox="0 0 40 40" fill="none" xmlns="http://www.w3.org/2000/svg">
<path d="M27.2907 2.99718C27.6172 2.2358 27.266 1.34813 26.4823 1.0796C22.2477 -0.371324 17.6324 -0.363953 13.3812 1.12697C8.65651 2.78392 4.72514 6.15273 2.36387 10.5678C0.00260162 14.9828 -0.616814 20.1229 0.62801 24.9725C1.87284 29.8221 4.89135 34.0284 9.08715 36.7604C13.283 39.4923 18.3508 40.5511 23.2895 39.7276C28.2281 38.9041 32.6782 36.2583 35.7606 32.3127C38.843 28.3672 40.3334 23.4091 39.9373 18.4179C39.581 13.927 37.7206 9.70322 34.6806 6.41763C34.118 5.80955 33.1641 5.84749 32.5999 6.45407C32.0357 7.06066 32.0757 8.00568 32.6302 8.62115C35.1244 11.3894 36.6498 14.9132 36.9467 18.6553C37.2834 22.8977 36.0165 27.1121 33.3965 30.4658C30.7765 33.8195 26.9939 36.0685 22.796 36.7685C18.5982 37.4684 14.2905 36.5684 10.7241 34.2463C7.15765 31.9242 4.59191 28.3488 3.53381 24.2266C2.47571 20.1045 3.00221 15.7354 5.00929 11.9826C7.01637 8.22982 10.358 5.36633 14.374 3.95792C17.9163 2.71563 21.756 2.68511 25.2966 3.84614C26.0838 4.10427 26.9642 3.75857 27.2907 2.99718Z" fill="white"/>
<path d="M20 1.5C20 0.671573 20.6725 -0.00585081 21.4986 0.0562233C23.6119 0.215021 25.6898 0.708969 27.6537 1.52241C30.0802 2.5275 32.285 4.00069 34.1421 5.85787C35.9993 7.71504 37.4725 9.91982 38.4776 12.3463C39.291 14.3102 39.785 16.3881 39.9438 18.5014C40.0059 19.3275 39.3284 20 38.5 20C37.6716 20 37.0069 19.3271 36.9339 18.5019C36.7818 16.7829 36.3686 15.0941 35.706 13.4944C34.8516 11.4318 33.5994 9.55778 32.0208 7.97919C30.4422 6.40059 28.5682 5.14838 26.5056 4.29405C24.9059 3.63142 23.2171 3.21821 21.4981 3.06613C20.6729 2.99313 20 2.32843 20 1.5Z" fill="#5784BA"/>
<path d="M13.448 22.304L15.16 20.656C15.92 19.928 16.08 19.44 16.08 18.896C16.08 17.936 15.328 17.336 14.16 17.336C13.288 17.336 12.544 17.648 12.112 18.184L12.656 18.656C13 18.24 13.488 18.048 14.088 18.048C14.872 18.048 15.28 18.4 15.28 18.976C15.28 19.328 15.168 19.68 14.576 20.256L12.296 22.456V23H16.32V22.304H13.448ZM18.9778 19.632H18.3538L18.5058 18.096H20.9938V17.4H17.8338L17.5378 20.328H18.8098C20.1058 20.328 20.5058 20.72 20.5058 21.352C20.5058 21.96 20.0258 22.352 19.1778 22.352C18.4978 22.352 17.8738 22.104 17.4978 21.752L17.1298 22.384C17.6098 22.808 18.3938 23.064 19.1858 23.064C20.6178 23.064 21.3058 22.288 21.3058 21.32C21.3058 20.328 20.6498 19.632 18.9778 19.632Z" fill="#5784BA"/>
<path d="M24.2 21.056C24.782 21.056 25.172 20.6 25.172 19.91C25.172 19.22 24.782 18.764 24.2 18.764C23.618 18.764 23.222 19.226 23.222 19.91C23.222 20.594 23.618 21.056 24.2 21.056ZM23.864 23H24.326L27.194 18.8H26.732L23.864 23ZM24.2 20.714C23.84 20.714 23.612 20.408 23.612 19.91C23.612 19.412 23.84 19.106 24.2 19.106C24.566 19.106 24.788 19.406 24.788 19.91C24.788 20.414 24.566 20.714 24.2 20.714ZM26.858 23.036C27.44 23.036 27.836 22.574 27.836 21.89C27.836 21.206 27.44 20.744 26.858 20.744C26.276 20.744 25.886 21.206 25.886 21.89C25.886 22.574 26.276 23.036 26.858 23.036ZM26.858 22.694C26.492 22.694 26.27 22.394 26.27 21.89C26.27 21.386 26.492 21.086 26.858 21.086C27.218 21.086 27.446 21.392 27.446 21.89C27.446 22.388 27.218 22.694 26.858 22.694Z" fill="#5784BA"/>
</svg>
