<svg width="26" height="26" viewBox="0 0 26 26" fill="none" xmlns="http://www.w3.org/2000/svg">
<path d="M23.0301 21.2727L19.0168 17.396C20.3117 15.7978 21.0143 13.8242 21.0117 11.7924C21.0117 9.98295 20.4579 8.21414 19.4202 6.70964C18.3826 5.20514 16.9078 4.03253 15.1823 3.34008C13.4568 2.64764 11.5581 2.46647 9.72633 2.81947C7.89455 3.17248 6.21195 4.04381 4.89131 5.32328C3.57067 6.60275 2.6713 8.23289 2.30694 10.0076C1.94257 11.7822 2.12958 13.6217 2.84431 15.2935C3.55903 16.9652 4.76938 18.394 6.32229 19.3993C7.8752 20.4045 9.70092 20.9411 11.5686 20.9411C13.6657 20.9436 15.7028 20.2629 17.3525 19.0084L21.354 22.8966C21.4637 23.0038 21.5943 23.0889 21.7381 23.147C21.882 23.205 22.0363 23.2349 22.1921 23.2349C22.3479 23.2349 22.5022 23.205 22.646 23.147C22.7899 23.0889 22.9204 23.0038 23.0301 22.8966C23.1408 22.7903 23.2286 22.6638 23.2885 22.5245C23.3485 22.3851 23.3793 22.2357 23.3793 22.0847C23.3793 21.9337 23.3485 21.7843 23.2885 21.6449C23.2286 21.5055 23.1408 21.3791 23.0301 21.2727ZM4.48627 11.7924C4.48627 10.4353 4.90164 9.1087 5.67985 7.98033C6.45807 6.85195 7.56418 5.97249 8.8583 5.45316C10.1524 4.93383 11.5764 4.79795 12.9503 5.0627C14.3241 5.32745 15.5861 5.98095 16.5765 6.94056C17.567 7.90016 18.2416 9.12277 18.5148 10.4538C18.7881 11.7848 18.6479 13.1644 18.1118 14.4182C17.5758 15.672 16.668 16.7436 15.5033 17.4975C14.3386 18.2515 12.9693 18.6539 11.5686 18.6539C9.69024 18.6539 7.88882 17.931 6.56063 16.6442C5.23244 15.3574 4.48627 13.6122 4.48627 11.7924Z" fill="black"/>
</svg>
