<svg width="32" height="32" viewBox="0 0 32 32" fill="none" xmlns="http://www.w3.org/2000/svg">
<path d="M16.0002 2.66699C12.3242 2.66699 9.3335 5.65766 9.3335 9.33366V13.3337H8.00016C7.29292 13.3337 6.61464 13.6146 6.11454 14.1147C5.61445 14.6148 5.3335 15.2931 5.3335 16.0003V26.667C5.3335 27.3742 5.61445 28.0525 6.11454 28.5526C6.61464 29.0527 7.29292 29.3337 8.00016 29.3337H24.0002C24.7074 29.3337 25.3857 29.0527 25.8858 28.5526C26.3859 28.0525 26.6668 27.3742 26.6668 26.667V16.0003C26.6668 15.2931 26.3859 14.6148 25.8858 14.1147C25.3857 13.6146 24.7074 13.3337 24.0002 13.3337H22.6668V9.33366C22.6668 5.65766 19.6762 2.66699 16.0002 2.66699ZM12.0002 9.33366C12.0002 7.12832 13.7948 5.33366 16.0002 5.33366C18.2055 5.33366 20.0002 7.12832 20.0002 9.33366V13.3337H12.0002V9.33366ZM17.3335 23.631V26.667H14.6668V23.631C14.2007 23.364 13.8264 22.9621 13.5933 22.4781C13.3602 21.9942 13.2792 21.4509 13.3611 20.92C13.4429 20.3891 13.6838 19.8955 14.0518 19.5042C14.4199 19.113 14.8979 18.8424 15.4228 18.7283C15.8127 18.6421 16.217 18.6445 16.6058 18.7354C16.9947 18.8262 17.3581 19.0032 17.6695 19.2532C17.9808 19.5033 18.232 19.82 18.4047 20.1801C18.5773 20.5401 18.6669 20.9344 18.6668 21.3337C18.6661 21.8 18.5424 22.2579 18.3083 22.6612C18.0743 23.0645 17.738 23.399 17.3335 23.631Z" fill="#010620" fill-opacity="0.75"/>
</svg>
