<svg width="30" height="30" viewBox="0 0 30 30" fill="none" xmlns="http://www.w3.org/2000/svg">
<path d="M23.9492 16.2251C23.9992 15.8251 24.0367 15.4251 24.0367 15.0001C24.0367 14.5751 23.9992 14.1751 23.9492 13.7751L26.5867 11.7126C26.8242 11.5251 26.8867 11.1876 26.7367 10.9126L24.2367 6.58756C24.0867 6.31256 23.7492 6.21256 23.4742 6.31256L20.3617 7.56256C19.7117 7.06256 19.0117 6.65006 18.2492 6.33756L17.7742 3.02506C17.7535 2.87799 17.6799 2.74351 17.5671 2.64685C17.4543 2.5502 17.3102 2.498 17.1617 2.50006H12.1617C11.8492 2.50006 11.5867 2.72506 11.5492 3.02506L11.0742 6.33756C10.3117 6.65006 9.61166 7.07506 8.96166 7.56256L5.84916 6.31256C5.56166 6.20006 5.23667 6.31256 5.08666 6.58756L2.58666 10.9126C2.42416 11.1876 2.49916 11.5251 2.73666 11.7126L5.37416 13.7751C5.32416 14.1751 5.28666 14.5876 5.28666 15.0001C5.28666 15.4126 5.32416 15.8251 5.37416 16.2251L2.73666 18.2876C2.49916 18.4751 2.43666 18.8126 2.58666 19.0876L5.08666 23.4126C5.23667 23.6876 5.57416 23.7876 5.84916 23.6876L8.96166 22.4376C9.61166 22.9376 10.3117 23.3501 11.0742 23.6626L11.5492 26.9751C11.5867 27.2751 11.8492 27.5001 12.1617 27.5001H17.1617C17.4742 27.5001 17.7367 27.2751 17.7742 26.9751L18.2492 23.6626C19.0117 23.3501 19.7117 22.9251 20.3617 22.4376L23.4742 23.6876C23.7617 23.8001 24.0867 23.6876 24.2367 23.4126L26.7367 19.0876C26.8867 18.8126 26.8242 18.4751 26.5867 18.2876L23.9492 16.2251ZM14.6617 19.3751C12.2492 19.3751 10.2867 17.4126 10.2867 15.0001C10.2867 12.5876 12.2492 10.6251 14.6617 10.6251C17.0742 10.6251 19.0367 12.5876 19.0367 15.0001C19.0367 17.4126 17.0742 19.3751 14.6617 19.3751Z" fill="white"/>
</svg>
