<svg width="32" height="32" viewBox="0 0 32 32" fill="none" xmlns="http://www.w3.org/2000/svg">
<path d="M5.33317 26.6663H26.6665C28.1332 26.6663 29.3332 25.4663 29.3332 23.9997C29.3332 22.533 28.1332 21.333 26.6665 21.333H5.33317C3.8665 21.333 2.6665 22.533 2.6665 23.9997C2.6665 25.4663 3.8665 26.6663 5.33317 26.6663ZM5.33317 22.6663H7.99984V25.333H5.33317V22.6663ZM2.6665 7.99967C2.6665 9.46634 3.8665 10.6663 5.33317 10.6663H26.6665C28.1332 10.6663 29.3332 9.46634 29.3332 7.99967C29.3332 6.53301 28.1332 5.33301 26.6665 5.33301H5.33317C3.8665 5.33301 2.6665 6.53301 2.6665 7.99967ZM7.99984 9.33301H5.33317V6.66634H7.99984V9.33301ZM5.33317 18.6663H26.6665C28.1332 18.6663 29.3332 17.4663 29.3332 15.9997C29.3332 14.533 28.1332 13.333 26.6665 13.333H5.33317C3.8665 13.333 2.6665 14.533 2.6665 15.9997C2.6665 17.4663 3.8665 18.6663 5.33317 18.6663ZM5.33317 14.6663H7.99984V17.333H5.33317V14.6663Z" fill="#3F4356"/>
</svg>
