<svg width="23" height="23" viewBox="0 0 23 23" fill="none" xmlns="http://www.w3.org/2000/svg">
<path d="M20.2762 16.9472C20.2762 17.1031 20.2192 17.238 20.1053 17.3519C19.9914 17.4658 19.8565 17.5228 19.7006 17.5228C19.5447 17.5228 19.4098 17.4658 19.2959 17.3519C19.182 17.238 19.1251 17.1031 19.1251 16.9472V9.37507L12.776 12.5586C12.2963 12.7984 11.7268 12.9183 11.0673 12.9183C10.4078 12.9183 9.83824 12.7984 9.35861 12.5586L2.55986 9.15924C2.09222 8.91943 1.8584 8.63465 1.8584 8.3049C1.8584 7.97516 2.09222 7.69637 2.55986 7.46855L9.35861 4.06917C9.83824 3.82936 10.4078 3.70945 11.0673 3.70945C11.7268 3.70945 12.2963 3.82936 12.776 4.06917L19.5747 7.46855C19.9824 7.67239 20.2102 7.9242 20.2582 8.22396C20.2702 8.23595 20.2762 8.25994 20.2762 8.29591V16.9472ZM13.3515 13.7097L16.8228 11.9651V14.5011C16.8228 15.0167 16.2623 15.4574 15.1411 15.8231C14.02 16.1888 12.6621 16.3717 11.0673 16.3717C9.47252 16.3717 8.11457 16.1888 6.99343 15.8231C5.8723 15.4574 5.31173 15.0167 5.31173 14.5011V11.9651L8.78305 13.7097C9.26268 13.9495 10.0241 14.0695 11.0673 14.0695C12.1105 14.0695 12.8719 13.9495 13.3515 13.7097Z" fill="black"/>
</svg>
