<svg width="180" height="180" viewBox="0 0 180 180" fill="none" xmlns="http://www.w3.org/2000/svg">
<circle cx="90" cy="90" r="90" fill="#EC7495"/>
<mask id="mask0" mask-type="alpha" maskUnits="userSpaceOnUse" x="0" y="0" width="180" height="180">
<circle cx="90" cy="90" r="90" fill="#C4C4C4"/>
</mask>
<g mask="url(#mask0)">
<path fill-rule="evenodd" clip-rule="evenodd" d="M74.2434 127.848L71.5513 134.506L73.0346 155.61L74.1384 155.782C85.7954 157.59 93.7166 158.503 97.9019 158.522L98.0314 158.522C102.246 158.522 107.297 157.58 113.183 155.696L113.451 155.61L114.13 139.808H112.528L109.629 133.009L109.632 133.007C109.664 133.062 109.697 133.114 109.732 133.166C110.94 134.954 111.641 133.51 114.48 134.142C117.879 134.899 119.388 138.336 122.381 140.905C123.77 142.098 126.687 142.66 128.082 143.48L129.549 144.341C134.142 147.052 139.422 150.344 142.194 154.633C145.444 159.662 147.684 164.434 149.752 170.027C154.211 182.084 157.306 194.387 159.517 207.039C161.758 219.863 163.105 232.846 164.134 245.818C164.611 251.83 165.015 257.847 165.35 263.868L165.432 265.373C165.609 268.649 165.456 271.855 162.478 273.872C160.345 275.317 157.514 275.537 155.011 275.685L154.875 275.693C136.37 276.779 117.865 277.857 99.3597 278.937L71.6025 280.56C66.984 280.831 62.3655 281.1 57.7469 281.367L46.4731 282.018C41.1598 282.321 35.8399 282.582 30.5194 282.552C23.8255 282.512 17.16 282.018 10.5277 281.125L9.94263 281.046C5.77006 280.469 -0.279963 279.011 -1.02945 274.005C-1.13705 273.286 -0.504633 272.837 0.0263449 272.94C-0.148374 272.126 -0.256858 271.309 -0.360501 270.601C-0.80522 267.572 -1.08446 264.523 -1.22243 261.465C-1.49925 255.346 -1.266 249.198 -0.654486 243.106C0.357177 233.026 1.77532 222.964 3.24067 212.937L3.56693 210.71C5.12554 200.086 6.98121 189.481 9.88498 179.133C12.5674 169.574 16.752 159.629 22.51 153.585C28.268 147.54 36.4776 142.289 44.9132 139.072C45.6437 138.793 60.1581 135.614 61.136 136.077L61.3116 135.94C64.2054 133.654 68.3335 129.64 72.5837 130.904L72.5935 130.888C72.6937 130.703 73.0863 129.47 73.6287 127.848L74.2434 127.848Z" fill="#8FA7DF"/>
<path fill-rule="evenodd" clip-rule="evenodd" d="M77.3136 118.986C80.8291 114.527 84.5348 113.11 90.0105 113.442C93.7238 113.309 97.4272 114.273 100.571 116.403C103.452 117.909 106.007 119.982 107.831 122.651C109.39 124.932 108.205 130.57 109.63 133.009C109.616 133.275 109.609 133.517 109.609 133.735C109.609 135.846 111.077 138.202 114.014 140.802L114.131 140.905V156.243C109.193 157.762 103.08 158.522 95.7916 158.522C88.6117 158.522 81.1438 157.316 73.3878 154.904L73.0351 154.793L71.5518 138.123L73.0351 133.509L73.0349 129.645L73.608 127.917C74.623 124.879 76.1766 120.428 77.3136 118.986Z" fill="#D08B5B"/>
<path fill-rule="evenodd" clip-rule="evenodd" d="M73.0347 154.794C73.0347 154.794 86.0715 158.592 94.9713 158.592C103.871 158.592 113.451 154.794 113.451 154.794L111.897 279.811L86.883 280.117L73.0347 154.794Z" fill="#9FD8E5"/>
<path fill-rule="evenodd" clip-rule="evenodd" d="M30.1198 209.38C30.0234 209.2 30.247 209.037 30.3953 209.167C33.7649 212.126 35.529 216.876 35.8989 221.268C36.2908 225.924 35.7352 230.745 35.5229 235.4C35.2865 240.584 35.0742 245.771 34.7857 250.953C34.4928 256.211 34.1772 261.467 33.9068 266.726L33.2984 278.555C33.2337 279.816 33.3739 281.366 32.8902 282.543C32.1407 284.367 29.9144 284.085 29.4465 282.56L29.4319 282.51L29.3892 282.543C28.9764 281.169 29.2853 279.538 29.3553 278.117L29.9928 265.192C30.4432 256.057 30.8448 246.921 31.3286 237.787L31.4931 234.743C31.7193 230.644 31.8927 226.556 32.0319 222.458L32.0771 221.092C32.2094 216.978 32.1044 213.095 30.1198 209.38ZM111.804 133.54C113.681 133.362 115.099 133.985 116.803 134.641C117.545 134.926 118.248 135.256 118.961 135.598C119.852 136.026 120.426 136.782 120.975 137.582L121.268 138.012C123.555 141.364 125.093 145.23 126.829 148.879C128.859 153.147 130.909 157.406 132.896 161.695L133.877 163.807C134.367 164.864 134.855 165.921 135.337 166.981L136.169 168.827C137.004 170.699 137.754 172.679 136.563 174.61C135.455 176.406 133.492 177.795 131.937 179.183C130.64 180.342 129.343 181.5 128.045 182.658C130.727 185.345 132.528 188.728 133.586 192.356C135.09 191.73 136.926 191.609 138.48 191.338C140.657 190.959 140.924 194.255 138.87 194.215C137.353 194.185 135.573 194.34 134.017 194.02C134.287 195.212 134.483 196.423 134.608 197.636C135.262 203.997 133.833 210.395 132.343 216.549L132.22 217.055C130.602 223.716 129.067 230.395 127.694 237.111C126.318 243.842 125.08 250.601 123.982 257.383C122.863 264.286 122.072 271.227 121.222 278.166C121.093 279.216 120.432 280.116 119.272 280.116C118.306 280.116 117.201 279.214 117.323 278.166C118.2 270.609 119.445 263.092 120.681 255.587C122.811 242.662 125.491 229.85 128.575 217.122L129.114 214.905C130.501 209.156 131.76 203.233 131.064 197.303C130.497 192.475 128.479 187.326 124.49 184.327L124.369 184.237C123.437 183.553 123.079 182.246 123.996 181.346C124.58 180.773 125.165 180.201 125.75 179.629L129.261 176.2L129.969 175.507C130.559 174.931 131.152 174.358 131.763 173.803C132.133 173.467 133.135 172.826 133.208 172.274C133.256 171.913 132.829 171.279 132.656 170.947L131.863 169.347C131.413 168.435 130.977 167.516 130.538 166.598C129.627 164.697 128.703 162.801 127.813 160.891L122.461 149.419C120.951 146.183 119.606 142.766 117.632 139.774L117.243 139.191C116.918 138.7 116.631 138.227 116.426 137.626C116.229 137.048 115.981 136.414 115.616 135.921C114.761 134.764 113.127 134.107 111.76 133.865C111.562 133.83 111.634 133.557 111.804 133.54ZM70.6426 130.527C70.7614 130.527 70.7794 130.697 70.6698 130.73C69.0203 131.226 67.4441 132.027 66.1582 133.183C65.5429 133.736 64.9235 134.363 64.5437 135.108C64.3983 135.393 64.3178 135.694 64.2589 136.006L64.24 136.11C64.142 136.674 64.0018 136.988 63.7154 137.439L63.6663 137.515C62.032 140.04 60.8867 142.844 59.8395 145.652L57.5589 151.775L55.2798 157.897C54.5455 159.87 53.8108 161.843 53.0763 163.816C52.6705 164.905 52.2533 165.99 51.8363 167.075C51.6558 167.545 51.4618 168.011 51.2967 168.487C51.2741 168.552 51.2019 168.944 51.1477 169.039L51.1662 169.071C51.6259 169.845 52.8518 170.491 53.5467 171.053L55.9395 172.988C57.6456 174.368 59.3954 175.709 61.0502 177.151C62.0897 178.056 61.443 179.677 60.2837 180.055C58.3412 180.688 56.4379 181.446 54.5244 182.163C53.7514 182.452 52.9466 182.704 52.1826 183.023L51.7176 183.224C51.5359 183.305 51.6233 183.305 51.6305 183.64C51.6378 183.992 51.7375 184.358 51.7947 184.704C52.4392 188.602 53.1225 192.494 53.8436 196.379C56.3944 210.118 59.4418 223.757 62.9175 237.29C64.6731 244.125 66.5558 250.926 68.3499 257.75C70.1395 264.556 72.4943 271.265 74.7427 277.931C75.3771 279.811 72.3974 280.62 71.7787 278.748C69.1874 270.908 66.8168 263 64.3687 255.116C60.0192 241.106 56.5918 226.793 53.5604 212.445C52.0579 205.333 50.6837 198.195 49.4391 191.034C49.2034 189.678 48.9723 188.322 48.746 186.964L48.4161 184.968C48.19 183.545 48.0612 182.063 49.1669 180.936C50.2465 179.837 52.0999 179.448 53.5206 178.932L53.6237 178.894C54.5277 178.557 55.4383 178.232 56.3453 177.896C55.0092 176.844 53.6895 175.768 52.3567 174.717C51.2815 173.868 50.1894 173.037 49.1297 172.169C48.2559 171.454 47.5433 170.535 47.4522 169.37C47.3593 168.181 47.869 167.077 48.28 165.986L48.3195 165.88C48.723 164.791 49.1277 163.702 49.5427 162.616L52.1107 155.898C53.7426 151.629 55.3056 147.325 57.022 143.09C57.701 141.413 58.4411 139.763 59.3155 138.179C59.7371 137.415 60.1893 136.667 60.6807 135.946C61.2313 135.137 61.731 134.743 62.5841 134.297C63.9482 133.583 65.0188 132.387 66.3886 131.651C67.7331 130.929 69.1163 130.544 70.6426 130.527ZM75.0707 122.911C75.1229 122.821 75.2611 122.861 75.2628 122.963C75.2985 125.085 74.7946 127.253 74.4845 129.351C74.1731 131.456 74.0732 133.679 73.6228 135.761C73.6135 135.859 73.5947 135.954 73.5682 136.048L73.5467 136.119C73.3565 136.703 72.8621 137.198 72.2554 137.352C72.4462 138.41 72.626 139.469 72.7772 140.534C73.0368 142.365 73.2738 144.198 73.5069 146.032L73.7859 148.233C74.0493 150.307 74.3054 152.382 74.5587 154.457C75.2028 154.726 75.86 154.949 76.5332 155.141C78.0834 155.585 79.6713 155.766 81.271 155.923C84.529 156.242 87.8118 156.39 91.0813 156.572L91.7817 156.611C95.4574 156.822 99.1531 156.859 102.82 156.482C104.638 156.295 106.441 155.981 108.214 155.536C109.115 155.31 109.991 154.972 110.89 154.751C111.188 154.678 111.454 154.509 111.753 154.329C111.886 154.161 112.072 154.034 112.315 153.985L112.38 153.973L112.445 153.964L112.468 153.954L112.466 153.961C112.65 153.936 112.825 153.936 112.99 153.958C113.055 152.34 113.126 150.722 113.215 149.105C113.455 144.76 114.115 140.228 113.233 135.922C113.204 135.777 113.401 135.726 113.452 135.861C115.182 140.42 114.988 145.406 115.075 150.204C115.16 154.897 115.108 159.593 115.085 164.287C115.421 164.43 115.721 164.624 115.958 164.896C116.432 165.439 116.569 166.385 115.958 166.909C115.688 167.142 115.388 167.304 115.07 167.416C115.053 171.493 115.025 175.571 114.984 179.649C115.759 180.248 115.831 181.67 114.954 182.261C114.808 195.467 114.569 208.673 114.37 221.876L113.953 249.578C113.897 253.268 113.805 256.959 113.772 260.649L113.799 260.66L113.891 260.702C114.046 260.775 114.277 260.893 114.325 261.014C114.338 261.046 114.341 261.067 114.34 261.084C114.594 261.119 114.846 261.24 115.064 261.446C115.602 261.958 115.493 262.729 115.064 263.25L114.949 263.39C114.682 263.714 114.174 263.839 113.76 263.773C113.764 266.077 113.779 268.38 113.771 270.684C113.769 271.387 113.758 272.091 113.746 272.794L113.717 274.481C113.698 275.444 113.613 276.667 112.627 277.099C111.515 277.587 110.518 277.188 110.068 276.058C109.946 275.752 109.972 275.467 110.017 275.164C110.003 274.71 109.932 274.183 109.941 273.761L109.977 272.003C109.983 271.731 109.994 271.46 110.002 271.189L109.97 271.192C106.019 271.384 102.04 271.291 98.0829 271.288L96.3229 271.291C94.8544 271.292 93.3827 271.284 91.9163 271.228L91.3667 271.205C90.2688 271.153 89.1142 271.137 87.9762 271.039C88.1212 272.207 88.2567 273.377 88.3775 274.548C88.4919 275.658 87.3466 276.601 86.3249 276.601C85.1115 276.601 84.4175 275.647 84.2723 274.548C83.5866 269.362 83.3061 264.128 82.651 258.939C82.0642 254.292 81.5554 249.634 81.0383 244.977L80.8655 243.425C78.973 226.48 77.1356 209.529 75.3781 192.569L74.5598 184.641C73.7334 176.65 72.9021 168.658 72.2011 160.656C71.8001 156.081 71.4307 151.504 71.083 146.925C70.828 143.56 70.6678 140.214 70.5635 136.856C70.1522 136.433 69.946 135.815 70.1282 135.177C70.2347 134.804 70.3586 134.434 70.4893 134.064C70.4812 133.7 70.4726 133.337 70.4655 132.973C70.4589 132.629 70.8084 132.452 71.0881 132.509C71.5964 131.278 72.1562 130.057 72.6233 128.838C73.3794 126.864 74.0026 124.737 75.0707 122.911ZM32.8448 144.242C40.7487 139.287 50.1571 135.721 59.5803 136.105C59.7946 136.114 59.8549 136.441 59.6324 136.49C54.6061 137.613 49.5245 138.98 44.7659 140.971C39.9935 142.967 35.4556 145.655 31.414 148.885C23.957 154.844 18.1609 162.596 14.3444 171.334C12.1089 176.452 10.5419 181.856 9.17366 187.262C7.72574 192.983 6.53241 198.766 5.54021 204.583C3.58045 216.075 2.4395 227.692 1.83239 239.33C1.21471 251.169 1.46931 263.016 1.02877 274.856C0.95263 276.907 -1.97842 276.867 -2.12739 274.856C-3.12554 261.394 -2.57255 247.718 -1.64945 234.266C-0.819424 222.173 0.630038 210.105 2.9641 198.207L3.16741 197.176C5.34938 186.168 7.98124 174.893 13.2562 164.924C17.7597 156.413 24.7124 149.341 32.8448 144.242ZM142.603 196.854C142.644 196.736 142.8 196.738 142.841 196.854C143.742 199.377 143.775 202.225 144.014 204.884L144.033 205.089C144.263 207.515 144.436 209.943 144.596 212.374L144.656 213.286C145.302 223.203 146.108 233.109 147.324 242.974C148.535 252.802 150.173 262.561 151.944 272.301C152.142 273.385 151.662 274.49 150.525 274.802C149.523 275.078 148.236 274.46 148.025 273.382C146.925 267.792 146.036 262.194 145.242 256.555C143.846 246.625 142.804 236.65 142.134 226.645C141.798 221.62 141.59 216.597 141.508 211.561C141.47 209.224 141.531 206.882 141.655 204.548L141.685 204.01C141.822 201.624 141.808 199.129 142.603 196.854ZM57.1957 260.02C57.3014 259.963 57.4321 260.08 57.3652 260.19C55.8347 262.678 53.7643 264.823 51.7632 266.938C49.6712 269.148 47.6309 271.425 45.4966 273.592C43.9545 275.158 41.4739 272.633 43.1014 271.196C45.3897 269.177 47.7814 267.258 50.1104 265.284L51.1289 264.421C53.0385 262.807 55.0047 261.207 57.1957 260.02ZM129.887 258.774C129.773 258.556 130.034 258.38 130.211 258.524C131.446 259.528 132.552 260.726 133.744 261.786C134.925 262.836 136.149 263.815 137.407 264.77C138.67 265.729 139.961 266.649 141.287 267.521C142.386 268.243 143.52 268.822 144.671 269.422C145.204 269.49 145.698 269.752 146.093 270.248C146.718 271.033 146.785 272.514 145.918 273.195L145.762 273.317C144.751 274.113 143.55 274.21 142.554 273.317C141.443 272.321 140.392 271.225 139.324 270.173L139.003 269.858C137.856 268.743 136.736 267.591 135.681 266.388L134.726 265.3C132.953 263.278 131.108 261.099 129.887 258.774ZM124.201 142.205C123.995 142.069 124.122 141.703 124.375 141.79L124.84 141.951C126.783 142.626 128.782 143.375 130.546 144.415C132.441 145.532 134.191 146.863 135.863 148.291C139.324 151.246 142.268 154.88 144.77 158.668C149.791 166.269 152.896 174.974 155.403 183.684C158.076 192.971 160.133 202.458 161.814 211.972C163.521 221.64 164.838 231.396 165.704 241.177C166.13 245.994 166.417 250.815 166.561 255.65C166.635 258.137 166.632 260.622 166.612 263.11C166.606 263.75 166.611 264.389 166.618 265.029L166.642 266.948C166.655 268.161 166.801 269.436 166.512 270.621C166.048 272.529 162.895 272.173 162.999 270.223C162.904 269.574 162.9 268.904 162.925 268.232C162.91 268.145 162.893 268.057 162.875 267.967C162.824 267.709 162.868 267.471 162.969 267.265C162.985 266.943 163 266.623 163.005 266.308C163.026 265.027 163.024 263.751 162.989 262.471C162.914 259.77 162.807 257.07 162.699 254.371C162.482 248.978 162.18 243.582 161.743 238.202C160.223 219.475 157.012 200.642 151.619 182.625C149.114 174.259 145.661 166.046 140.709 158.816C138.51 155.607 136.03 152.642 133.281 149.891C130.514 147.122 127.465 144.368 124.201 142.205ZM86.8833 262.927L87.257 265.632C87.4438 266.984 87.6288 268.337 87.8044 269.691C88.9973 269.527 90.2177 269.459 91.3672 269.357C93.3796 269.179 95.4058 269.092 97.4241 269.009C101.598 268.837 105.792 268.538 109.97 268.559C110.013 268.559 110.054 268.562 110.094 268.565L110.301 263.23L107.366 263.225C104.879 263.221 102.392 263.2 99.9054 263.178C97.6655 263.159 95.4248 263.156 93.1854 263.109L92.2257 263.087C90.5273 263.041 88.6521 263.135 86.8833 262.927ZM110.547 255.182C110.428 255.196 110.306 255.208 110.176 255.214C109.595 255.238 109.009 255.221 108.427 255.226C107.188 255.237 105.949 255.245 104.71 255.245C102.232 255.245 99.7549 255.26 97.2776 255.29C94.7272 255.32 92.1786 255.365 89.628 255.37C88.3922 255.372 87.1604 255.339 85.925 255.305C86.1248 257.061 86.3337 258.816 86.5643 260.566C88.4827 260.307 90.5459 260.438 92.4208 260.42L92.6643 260.417C95.2232 260.373 97.7844 260.405 100.344 260.408C102.977 260.411 105.61 260.42 108.243 260.442L110.407 260.459L110.411 260.35C110.474 258.629 110.515 256.906 110.547 255.182ZM84.9735 246.78C85.2133 248.853 85.4384 250.93 85.6679 253.006C85.8204 252.982 85.9749 252.962 86.1322 252.945C87.3698 252.816 88.6047 252.705 89.8467 252.628C92.3224 252.474 94.798 252.393 97.2777 252.327C99.8276 252.258 102.378 252.206 104.929 252.17C106.168 252.153 107.406 252.154 108.646 252.163C109.227 252.167 109.814 252.149 110.395 252.188C110.464 252.192 110.53 252.199 110.596 252.207L110.639 249.09C110.647 248.571 110.654 248.052 110.663 247.532C108.747 247.65 106.8 247.605 104.886 247.606L104.445 247.607C102.04 247.618 99.6344 247.585 97.23 247.535C94.7494 247.483 92.2738 247.402 89.7976 247.243C88.7944 247.179 87.7984 247.094 86.8007 246.984L86.3017 246.926C85.8675 246.875 85.4204 246.834 84.9735 246.78ZM110.86 237.985C106.247 238.352 101.659 238.505 97.0339 238.55L96.3398 238.556C92.2526 238.587 88.1318 238.756 84.0349 238.647C84.2798 240.772 84.5241 242.897 84.7703 245.021C85.357 244.993 85.9465 244.993 86.5199 244.972C87.6864 244.93 88.8489 244.92 90.0161 244.917C92.4205 244.912 94.825 244.933 97.2297 244.928C99.7079 244.922 102.186 244.881 104.663 244.834C106.672 244.796 108.702 244.645 110.717 244.651L110.86 237.985ZM111.055 228.921C110.521 229.099 109.89 229.11 109.198 229.142L107.412 229.231C106.585 229.271 105.757 229.309 104.929 229.34C102.169 229.441 99.4093 229.535 96.6492 229.623C93.8209 229.713 90.979 229.765 88.1503 229.676C86.7646 229.632 85.3906 229.559 84.0092 229.444C83.6676 229.415 83.3195 229.396 82.9707 229.372C83.2922 232.187 83.615 235.001 83.939 237.816C88.0162 237.315 92.125 237.003 96.1972 236.485L99.8794 236.015C103.56 235.545 107.237 235.084 110.931 234.696L111.055 228.921ZM111.252 219.757C110.468 219.951 109.574 219.942 108.821 219.989L108.681 219.999C107.254 220.107 105.824 220.161 104.393 220.196C101.59 220.266 98.7847 220.3 95.9804 220.317L94.2941 220.328C92.0461 220.341 89.7993 220.347 87.5506 220.294C86.1082 220.261 84.669 220.19 83.2277 220.118C82.796 220.096 82.3546 220.082 81.9118 220.059C82.2131 222.724 82.5174 225.389 82.8211 228.053C83.2946 227.978 83.7704 227.921 84.2239 227.844C85.3855 227.648 86.545 227.491 87.715 227.351C90.249 227.047 92.7963 226.828 95.3423 226.644C97.956 226.454 100.572 226.294 103.186 226.111L105.038 225.98C105.655 225.937 106.272 225.896 106.889 225.858C107.944 225.793 109.169 225.866 110.215 225.637C110.499 225.519 110.813 225.492 111.128 225.559L111.252 219.757ZM111.49 209.031C111.218 209.376 110.813 209.556 110.33 209.619C107.812 209.946 105.231 209.998 102.692 210.152L102.245 210.18C99.6236 210.353 97.0011 210.489 94.3781 210.628C91.6836 210.771 88.9895 210.888 86.2928 210.982C85.148 211.022 83.9974 211.026 82.8508 211.012L82.3597 211.004C81.8888 210.996 81.3957 210.997 80.9014 210.981C81.175 213.473 81.4511 215.965 81.7312 218.456C82.2352 218.401 82.7388 218.359 83.2276 218.308C84.668 218.155 86.1067 218.005 87.5504 217.891C90.2861 217.675 93.0237 217.546 95.7644 217.41C98.5685 217.271 101.374 217.179 104.179 217.048C105.538 216.984 106.898 216.905 108.253 216.78C109.203 216.693 110.332 216.369 111.323 216.488C111.378 214.002 111.434 211.517 111.49 209.031ZM111.71 199.422C111.668 199.488 111.617 199.553 111.556 199.612C110.448 200.708 109.082 200.623 107.614 200.738L107.524 200.746C106.084 200.867 104.644 200.982 103.204 201.086C100.323 201.294 97.4374 201.439 94.553 201.569C91.6011 201.702 88.6302 201.793 85.6754 201.733C83.7832 201.694 81.8014 201.701 79.8714 201.516C80.1678 204.261 80.4659 207.005 80.7663 209.749C81.3089 209.646 81.8551 209.568 82.3724 209.487C83.6762 209.281 84.9813 209.075 86.2926 208.924C88.913 208.622 91.534 208.34 94.1594 208.085C96.4046 207.868 98.6491 207.647 100.896 207.448L102.244 207.331C104.925 207.105 107.64 206.733 110.329 206.678C110.773 206.669 111.274 206.911 111.528 207.291C111.587 204.668 111.649 202.045 111.71 199.422ZM111.897 191.643C111.212 191.726 110.474 191.679 109.843 191.699C108.245 191.752 106.648 191.8 105.05 191.847L95.4647 192.13C92.2012 192.226 88.9262 192.299 85.6613 192.252C84.2251 192.232 82.7826 192.23 81.3469 192.152L80.8686 192.123C80.2778 192.083 79.5527 192.078 78.8446 192.006L79.6806 199.752C81.6013 199.474 83.5807 199.37 85.485 199.208L85.8919 199.172C88.7006 198.916 91.5227 198.746 94.3365 198.556C97.2229 198.36 100.105 198.123 102.988 197.88C104.428 197.759 105.869 197.638 107.308 197.506L107.486 197.488C108.846 197.346 110.125 197.044 111.329 197.846C111.505 197.963 111.643 198.12 111.738 198.295C111.79 196.078 111.842 193.86 111.897 191.643ZM112.12 182.603C106.283 182.838 100.444 183.016 94.602 183.094C91.3135 183.138 88.0293 183.107 84.7413 183.039C83.3156 183.009 81.8781 182.941 80.4534 182.831L79.9198 182.788C79.2425 182.731 78.5309 182.69 77.8223 182.622C78.1152 185.285 78.4057 187.949 78.694 190.613C79.3909 190.483 80.1194 190.423 80.7301 190.345L80.8689 190.327C82.3866 190.118 83.9186 189.996 85.4437 189.862C88.4135 189.6 91.398 189.431 94.3757 189.288C97.425 189.141 100.476 189.017 103.525 188.881L106.575 188.745C107.084 188.722 107.592 188.7 108.1 188.679C108.827 188.648 109.553 188.619 110.279 188.589C110.637 188.574 111.009 188.525 111.368 188.544L111.47 188.53C111.517 188.524 111.559 188.519 111.597 188.515C111.695 188.441 111.8 188.379 111.911 188.332L111.978 188.306L112.12 182.603ZM76.8649 174.036C77.136 176.434 77.404 178.832 77.6685 181.23C78.5012 181.135 79.3438 181.083 80.1388 181.011C81.7419 180.867 83.3524 180.741 84.9603 180.668L88.1738 180.518C90.316 180.419 92.458 180.323 94.6017 180.245C100.469 180.031 106.335 179.785 112.199 179.486C112.24 177.859 112.283 176.233 112.326 174.606C112.045 174.908 111.638 175.106 111.104 175.105C104.948 175.088 98.788 175.124 92.633 175.023C89.5521 174.972 86.4747 174.897 83.3973 174.739C81.8915 174.662 80.3773 174.504 78.883 174.297C78.2457 174.209 77.5484 174.146 76.8649 174.036ZM75.8802 165.493C76.1695 167.949 76.4534 170.405 76.7326 172.863C77.4971 172.726 78.2868 172.653 79 172.556C80.5324 172.348 82.0743 172.182 83.6177 172.095C86.621 171.925 89.626 171.839 92.6334 171.775C98.7879 171.645 104.949 171.645 111.105 171.597C111.683 171.592 112.112 171.821 112.394 172.163C112.437 170.629 112.482 169.095 112.528 167.562C111.934 167.499 111.344 167.41 110.799 167.372C109.122 167.255 107.445 167.148 105.767 167.051C102.266 166.851 98.7609 166.679 95.257 166.526C91.7523 166.374 88.2465 166.225 84.7407 166.095L83.2074 166.039C80.7694 165.948 78.29 165.834 75.8802 165.493ZM74.7775 156.244C75.0788 158.731 75.3754 161.219 75.6713 163.707L75.7613 164.477C78.6935 163.907 81.7836 163.74 84.7404 163.614C88.2469 163.465 91.7472 163.388 95.2568 163.399C98.7628 163.41 102.264 163.493 105.767 163.637C107.517 163.71 109.268 163.793 111.017 163.888C111.498 163.914 112.062 163.9 112.642 163.909C112.655 163.518 112.666 163.127 112.679 162.736C112.732 161.153 112.785 159.569 112.839 157.985C111.656 158.593 110.117 158.839 108.928 159.098L108.792 159.128C106.829 159.569 104.824 159.855 102.82 160.03C98.8841 160.373 94.9073 160.245 90.9753 159.912L90.2865 159.853C86.8336 159.554 83.254 159.174 79.9066 158.319C78.3121 157.912 76.6638 157.342 75.235 156.517C75.0864 156.431 74.9331 156.34 74.7775 156.244ZM108.025 126.685C108.059 126.55 108.26 126.52 108.326 126.646C108.791 127.529 108.964 128.59 109.287 129.537C109.634 130.555 109.959 131.58 110.342 132.585C111.143 134.686 112.087 136.705 113.213 138.652C114.329 140.579 111.206 141.954 110.385 139.844C109.538 137.667 108.841 135.416 108.42 133.116C108.214 131.993 108.031 130.855 107.971 129.715C107.92 128.735 107.782 127.641 108.025 126.685Z" fill="black"/>
<path fill-rule="evenodd" clip-rule="evenodd" d="M133.221 53.2649C133.148 50.6326 129.328 49.5396 128.225 52.1467C128.156 52.2164 128.082 52.2836 128.012 52.3437C128.358 52.0467 127.635 52.538 127.518 52.5988C127.417 52.6508 127.315 52.6976 127.212 52.7461C126.502 46.0773 124.093 38.8881 117.867 35.5408C109.184 31.3195 99.1507 30.4955 89.6244 30.9149C84.7986 31.2019 79.226 31.9755 74.9386 29.528C73.6027 28.7655 72.5318 27.5651 71.0221 27.0937C66.2565 25.8013 64.0949 30.7073 64.744 34.7417C62.7113 34.7577 60.6948 35.8859 59.8176 37.7434C59.3024 38.8428 59.3114 40.0291 58.8672 41.1324C57.5043 43.9303 55.5541 45.9415 56.6567 49.3338C54.7175 51.5459 55.8231 54.8948 57.3879 57.0127C58.1606 58.1143 59.0809 59.1718 59.647 60.4048C60.1964 61.5854 59.367 62.9854 58.9054 64.1046C55.4931 72.2164 55.6881 81.1497 57.5242 89.6108C53.8396 91.2136 52.7338 96.2238 55.1365 99.3786C55.9632 100.494 56.9718 100.908 58.1156 101.594C59.5631 102.392 58.3808 105.591 58.8444 107.136C59.4742 110.908 62.8997 113.231 66.2868 110.781C68.4361 110.455 70.1697 116.725 71.7305 118.298C72.6921 119.566 73.7597 120.705 74.9204 121.755C78.3789 130.676 96.1007 135.2 104.863 134.684C114.038 133.721 120.228 125.909 125.382 118.976C128.028 115.282 129.75 111.147 130.376 106.638C131.005 102.106 130.73 97.5653 130.304 93.0277C129.411 83.3867 128.003 69.497 127.093 59.7519C130.38 59.4804 133.321 56.6744 133.221 53.2649Z" fill="#D08B5B"/>
<path fill-rule="evenodd" clip-rule="evenodd" d="M67.6761 28.3765C68.3148 27.745 69.361 28.393 70.0529 28.9004L70.206 29.0144L70.6447 29.3486C71.639 30.1172 72.5696 30.9524 73.6438 31.6172C74.8162 32.3432 76.0893 32.9204 77.3824 33.3936C79.8901 34.3114 82.5877 34.7233 85.2462 34.8534C96.1236 35.3856 108.784 29.6562 118.656 36.498C120.996 38.1197 122.611 40.491 123.444 43.2031C124.384 46.2614 124.062 49.4287 124.831 52.4976C125.165 53.8297 127.464 54.0145 127.721 52.5506L127.738 52.4372L127.939 52.3107L128.019 52.2632C128.101 52.2161 128.138 52.2026 128.067 52.2689L128.051 52.283L128.083 52.2558C128.107 52.2344 128.131 52.2123 128.154 52.1898L128.224 52.1211C128.715 50.9631 129.74 50.5351 130.736 50.6477L130.708 50.7166L130.411 51.4823L130.317 51.7226C129.969 52.5996 129.585 53.43 128.922 54.1815C127.983 55.245 126.817 56.1117 125.502 56.6453C125.232 56.7549 125.272 57.1223 125.57 57.152C128.507 57.4451 131.815 55.6565 133.196 52.9456C133.21 53.0411 133.218 53.1391 133.221 53.2394C133.231 53.5696 133.212 53.8942 133.167 54.2114C133.003 54.2723 132.845 54.3627 132.698 54.4851C131.744 55.2796 131.276 56.5782 130.379 57.4646C129.439 58.3936 128.286 59.255 127.033 59.6865C127.014 59.6933 126.997 59.7032 126.983 59.7142C126.888 59.3549 126.789 58.9977 126.674 58.6459C126.63 58.5076 126.446 58.5422 126.432 58.6789C126.407 58.9229 122.962 56.466 120.308 56.8629C115.32 57.6092 114.168 60.5287 107.001 60.0976C103.503 59.8872 96.1164 56.6023 89.6542 56.3553C83.7917 56.1313 73.3145 59.4855 70.5503 61.4184C69.1133 62.4233 73.1711 65.7413 72.4361 67.2498C70.3512 71.5289 71.1959 77.1896 69.0159 80.5733L68.9316 80.7006C67.5355 82.7572 68.4071 88.2295 67.8633 89.9165C66.8816 92.9623 65.2559 91.6283 65.5014 92.0365C65.5791 92.1655 65.7868 92.0819 65.746 91.9331C65.0758 89.4898 63.2416 87.6451 60.9096 86.9719C61.0107 86.3927 60.8271 85.6656 60.4678 85.1906L60.3207 84.5031L60.1851 83.8596C59.8727 82.3585 59.5931 80.8587 59.4426 79.3165C59.2171 77.0037 59.2092 74.6738 59.3574 72.3554C59.5518 69.309 60.1777 66.374 60.8659 63.4411L60.9399 63.1268L61.481 60.8463C62.8336 61.2319 64.2214 61.4756 65.5703 61.5965C67.1408 61.7369 68.6957 61.7239 70.2385 61.5996C71.6058 65.3231 71.5538 69.5632 69.8641 73.1998C67.8872 77.4539 63.0418 81.5174 64.3718 86.6762C64.9518 88.9251 68.3449 88.466 68.4253 86.1953L68.4267 86.1259C68.4394 83.8822 69.2002 82.0345 70.2053 80.1061L70.3438 79.8426L70.5734 79.4127C71.7767 77.1569 72.7955 74.9309 73.1341 72.3646C73.626 68.6366 72.8553 64.7871 71.0136 61.5278C77.5737 60.8419 83.923 58.2383 90.3283 56.8396L90.6221 56.7766L90.9172 56.7157C95.6492 55.7591 100.865 55.6462 105.154 58.1437C105.236 58.1912 105.301 58.0721 105.227 58.0188C99.0006 53.5169 90.9365 54.1559 83.7967 55.7424L83.3854 55.8349L82.9815 55.9276C76.3775 57.4566 69.4588 59.7025 62.7083 57.7241C60.9536 57.2098 59.2507 56.3652 57.877 55.1419L57.7621 55.0388C57.1814 54.5133 56.5182 53.833 56.4064 53.0352C56.3671 52.7543 56.3794 52.5619 56.5447 52.3396C56.7169 52.108 57.0177 52.1091 56.8447 52.0254C58.8666 53.0024 60.6 50.1951 58.7009 48.9788L58.5667 48.8958C56.1368 47.3526 57.3508 43.8404 60.1383 43.8568L60.2808 43.8594C61.8595 43.8641 62.3433 41.9948 61.4942 40.9006L61.4127 40.7984C59.8414 38.7698 62.4862 36.3228 64.544 37.4697L64.6566 37.5346C65.6334 38.0761 66.6604 37.4732 67.0299 36.5169C67.8227 34.465 67.417 32.3464 67.3702 30.2226L67.3676 30.0841L67.3642 29.8531L67.3637 29.6707L67.3654 29.5497C67.3757 29.1021 67.4335 28.6166 67.6761 28.3765ZM127.057 60.0063L127.076 60.0107L127.119 60.0126L127.157 60.4259L127.108 60.2159L127.057 60.0063ZM59.6008 60.2809L59.5533 60.1839L59.707 60.2459L59.633 60.3499L59.6008 60.2809ZM102.674 48.473C102.51 48.4263 102.392 48.6815 102.555 48.7559C106.594 50.6081 109.658 53.5641 112.049 57.2681C112.276 57.6187 112.617 57.7215 113.011 57.6603C113.204 57.6303 113.313 57.5363 113.416 57.4075L113.441 57.3746L113.52 57.2681C113.691 57.0334 113.668 56.6431 113.52 56.406C111.093 52.52 107.031 49.7203 102.674 48.473ZM112.288 47.2597C112.111 47.2603 112.016 47.5328 112.152 47.6486C113.312 48.6383 114.444 49.7353 115.268 51.0301C115.668 51.6586 116.002 52.3287 116.244 53.0344C116.508 53.8045 116.593 54.6027 116.97 55.3309C117.601 56.5513 119.292 55.8696 119.377 54.6771C119.506 52.8784 118.007 50.8558 116.82 49.63C115.615 48.3862 114.137 47.5283 112.431 47.2777L112.312 47.2612L112.288 47.2597ZM67.7653 45.8515C67.2701 45.726 66.8652 46.3596 67.2546 46.7312C69.3929 48.7733 72.2828 49.7205 75.1602 50.1341L75.3065 50.1547C78.0006 50.525 81.9189 50.735 83.9502 48.5383C84.3804 48.0731 84.2456 47.1816 83.5552 47.0378C82.6097 46.8408 81.6392 46.9135 80.6801 47.0319L80.4065 47.0668L79.7263 47.1573C78.3829 47.3332 77.0344 47.4404 75.6783 47.4006C72.9631 47.3205 70.3768 46.5143 67.7653 45.8515ZM114.82 39.3537C114.535 39.2434 114.234 39.6357 114.413 39.8842C115.232 41.0232 116.214 42.0193 117.053 43.1409C117.895 44.266 118.598 45.4483 119.594 46.4493C120.128 46.9864 121.039 46.4401 120.85 45.7165C120.135 42.9773 117.415 40.3593 114.82 39.3537ZM72.191 40.59C71.892 40.4839 71.6825 40.8991 71.8906 41.1075C74.6477 43.8671 79.6082 45.3125 83.2603 43.7185C84.0822 43.3597 83.5787 42.2067 82.8393 42.1611C81.0117 42.0482 79.1765 42.2599 77.3583 41.9812C75.5832 41.7089 73.8807 41.1898 72.191 40.59ZM76.8256 36.8906C76.4306 36.7258 76.2655 37.3166 76.5557 37.5319C78.1157 38.688 80.0305 39.1893 81.9393 38.773C82.5609 38.6374 82.4268 37.6325 81.7889 37.6583C80.0621 37.7274 78.4347 37.5623 76.8256 36.8906ZM89.6239 30.8895C91.9876 30.7854 94.3825 30.7579 96.7802 30.8398L95.7163 30.9814L95.0068 31.0742C92.287 31.4259 89.5631 31.7234 86.8171 31.7113C84.9613 31.7032 83.1078 31.5532 81.2956 31.1865C84.0714 31.3543 86.9613 31.0478 89.6239 30.8895Z" fill="#ECDCBF"/>
<path fill-rule="evenodd" clip-rule="evenodd" d="M61.5521 47.4687C61.549 47.4824 61.5536 47.4927 61.5567 47.5073C61.5574 47.5031 61.558 47.5009 61.5591 47.4958C61.5565 47.4848 61.5545 47.4775 61.5521 47.4687Z" fill="#4F66AF"/>
<path fill-rule="evenodd" clip-rule="evenodd" d="M61.5509 47.609C61.5388 47.5962 61.5217 47.5868 61.5045 47.574C61.5041 47.5745 61.5039 47.5749 61.5037 47.5753C61.5197 47.5859 61.5351 47.598 61.5509 47.609Z" fill="#4F66AF"/>
<path fill-rule="evenodd" clip-rule="evenodd" d="M132.698 54.5104C133.778 53.611 135.479 54.4391 135.113 55.92C134.715 57.5327 132.991 58.6347 131.568 59.2973C130.103 59.979 128.676 60.1105 127.077 60.0361L127.057 60.0317C127.501 61.8154 127.753 63.6696 128.092 65.4641C128.523 67.7408 128.947 70.0185 129.364 72.2974C129.768 74.5 130.279 76.7056 130.589 78.9192C130.902 81.1538 131.202 83.39 131.51 85.6252C132.023 89.3585 132.437 93.1089 132.874 96.8529L133.082 98.6251C133.519 102.376 133.871 106.132 133.042 109.864C132.266 113.363 130.516 116.626 128.486 119.546C126.499 122.406 124.279 125.156 121.842 127.643C117.141 132.44 111.344 136.282 104.546 136.994C101.619 137.301 98.4932 136.96 95.7416 135.893L95.5589 135.822C92.7735 134.719 89.3625 132.832 88.6376 129.734C88.1925 127.834 90.1457 126.35 91.8582 127.252C92.6517 127.67 93.2483 128.147 93.8997 128.746L94.0152 128.853C94.5475 129.348 94.7524 129.501 95.3665 129.888C96.6263 130.683 97.5705 131.059 99.0013 131.42C101.639 132.085 104.487 131.98 107.165 131.193C112.851 129.523 117.262 125.164 121.04 120.794C123.092 118.42 125.04 115.931 126.542 113.165C128.118 110.263 128.845 107.216 128.801 103.914C128.752 100.188 128.238 96.4477 127.901 92.7395C127.558 88.9592 127.24 85.1801 126.961 81.3944C126.699 77.8443 126.673 74.2782 126.582 70.717L126.564 70.0493C126.51 68.1588 126.472 66.2676 126.43 64.3767C126.387 62.4912 126.238 60.5818 126.432 58.7042C126.446 58.5675 126.63 58.533 126.674 58.6712C126.789 59.023 126.889 59.3803 126.983 59.7395C126.997 59.7285 127.014 59.7186 127.034 59.7118C128.286 59.2803 129.439 58.4189 130.379 57.49C131.276 56.6035 131.744 55.3049 132.698 54.5104ZM64.1716 28.0947C64.9584 24.8552 68.4989 24.1316 71.1171 25.6917C72.3764 26.4419 73.3847 27.5239 74.561 28.3837C75.7305 29.2387 77.023 29.9253 78.3868 30.4103C81.0963 31.3736 83.9544 31.7238 86.818 31.7364C93.7876 31.767 100.615 29.8034 107.595 30.0224C112.996 30.1919 118.728 31.7921 122.646 35.7061C124.756 37.8145 126.116 40.5253 126.845 43.4031C127.186 44.7481 127.44 46.1257 127.641 47.5001L127.69 47.8436C127.802 48.6469 127.982 49.4973 127.999 50.3092C128.014 51.0382 127.83 51.8012 127.73 52.5228C127.52 54.044 125.17 53.8707 124.832 52.5228C124.063 49.4539 124.385 46.2866 123.445 43.2283C122.612 40.5162 120.997 38.1449 118.657 36.5232C108.785 29.6814 96.1244 35.4109 85.2471 34.8786C82.5886 34.7485 79.891 34.3366 77.3833 33.4189C76.0902 32.9456 74.8171 32.3684 73.6447 31.6424C72.5705 30.9776 71.6399 30.1424 70.6456 29.3739L70.2069 29.0396C69.5252 28.5255 68.3648 27.7217 67.677 28.4018C67.3778 28.6978 67.3597 29.3672 67.3651 29.8783L67.3685 30.1093C67.3997 32.2794 67.8408 34.4456 67.0308 36.5421C66.6612 37.4984 65.6343 38.1014 64.6575 37.5598L64.607 37.5308C62.541 36.2986 59.8265 38.7745 61.4136 40.8237L61.463 40.8856C62.356 41.9736 61.8799 43.8894 60.2817 43.8846L60.2241 43.8836C57.3765 43.7945 56.1132 47.3622 58.5676 48.921L58.6431 48.9677C60.6358 50.1632 58.8879 53.0375 56.8456 52.0506C57.0186 52.1343 56.7178 52.1332 56.5456 52.3648C56.3803 52.5871 56.368 52.7795 56.4073 53.0604C56.5265 53.9114 57.2731 54.6286 57.8779 55.1671C59.2516 56.3904 60.9545 57.235 62.7092 57.7493C69.7381 59.8093 76.9492 57.2894 83.7976 55.7676C90.9374 54.1811 99.0014 53.5421 105.228 58.044C105.302 58.0973 105.237 58.2164 105.155 58.1689C100.687 55.5673 95.2138 55.7982 90.3292 56.8648C83.9239 58.2635 77.5746 60.8671 71.0145 61.553C72.8562 64.8123 73.6269 68.6618 73.135 72.3898C72.7964 74.9561 71.7776 77.1821 70.5743 79.4379L70.3447 79.8678C69.2719 81.8926 68.4408 83.8054 68.4276 86.1511C68.4146 88.4817 64.9586 88.973 64.3727 86.7014C63.0427 81.5426 67.8881 77.4791 69.865 73.225C71.5547 69.5884 71.6067 65.3483 70.2394 61.6248C68.6966 61.7491 67.1417 61.7621 65.5712 61.6217C64.2223 61.5008 62.8345 61.2571 61.4819 60.8715L60.9408 63.152C60.2238 66.1897 59.5596 69.2254 59.3583 72.3806C59.2101 74.699 59.218 77.0289 59.4435 79.3417C59.6385 81.3392 60.05 83.2656 60.4687 85.2157C60.828 85.6908 61.0115 86.4179 60.9105 86.9971C63.2425 87.6703 65.0767 89.515 65.7469 91.9583C65.7877 92.1071 65.58 92.1907 65.5023 92.0617C63.9123 89.417 59.8179 88.4438 57.2279 90.191C54.7545 91.8592 53.7789 95.2273 55.1789 97.8935C55.9154 99.2955 57.0072 100.281 58.4151 100.959L58.6982 101.092C59.436 101.442 60.1133 101.824 60.5877 102.527C61.2033 103.439 61.224 104.402 61.1658 105.444L61.1407 105.867C61.1018 106.565 61.093 107.284 61.3005 107.956L61.3477 108.105C61.4024 108.273 61.4599 108.42 61.5599 108.58C61.5897 108.628 61.8699 108.904 61.9613 109.003L62.0763 109.038L62.205 109.043C62.3477 109.046 62.5353 108.984 62.4738 109.027L62.4905 109.017C62.5447 108.983 62.5945 108.947 62.6365 108.916L62.7162 108.853C62.9026 108.583 63.1362 108.36 63.4228 108.19L63.6966 108.068C64.4079 107.315 65.6266 107.71 66.1364 108.46C66.5034 109 66.7008 109.548 66.717 110.089C66.7743 109.997 66.9017 109.946 66.9827 110.049L67.4662 110.667C69.3158 113.036 71.1336 115.42 73.2354 117.58C74.3933 118.77 75.6387 119.888 76.9407 120.918C78.0522 121.798 80.1606 122.644 80.1929 124.246C80.203 124.766 79.8348 125.134 79.3842 125.311C77.9177 125.885 76.1055 123.932 75.0463 122.981L74.9598 122.904C73.6634 121.766 72.4802 120.516 71.3885 119.18C69.2679 116.585 67.4948 113.597 66.7133 110.311C66.6766 110.884 66.4311 111.446 65.9533 111.976C65.3172 112.682 64.4465 113.177 63.5166 113.381C61.4097 113.843 59.3526 113.082 58.099 111.322C57.0394 109.835 56.7274 107.87 56.8641 106.072L56.881 105.857C56.9002 105.568 56.9247 105.039 56.9991 104.814L56.3357 104.449C55.5224 104.015 54.7685 103.446 54.092 102.821C51.3729 100.308 50.0086 96.2238 51.2517 92.6499C52.0292 90.4142 53.6631 88.4689 55.7554 87.4578C55.4057 86.6476 55.2887 85.6855 55.1568 84.8342L55.1346 84.6934C54.9108 83.2968 54.7235 81.8827 54.6522 80.4694C54.5187 77.83 54.6809 75.1659 55.0946 72.5571C55.7666 68.3197 57.1576 63.8259 59.7074 60.2711C57.7621 59.4967 55.9716 58.3756 54.5896 56.8188C53.1454 55.192 52.2246 52.8629 53.3415 50.797C53.626 50.2704 53.9969 49.8277 54.4231 49.4762C53.684 48.077 53.4449 46.4233 53.901 44.8428C54.446 42.9531 55.9257 41.4793 57.7134 40.7912C57.2793 39.0008 57.6341 37.0751 58.9606 35.583C60.2764 34.1028 62.3196 33.5637 64.2107 33.9021C64.3132 31.9979 63.7153 29.9726 64.1716 28.0947ZM58.8681 94.9498C60.6019 94.0992 62.6568 94.2344 64.3886 95.0405L64.506 95.0963C66.3968 96.0155 68.9011 98.1631 68.3001 100.447C67.9483 101.783 66.4679 102.239 65.3199 101.663C64.361 101.181 64.1423 100.319 63.6611 99.454C63.321 98.842 62.9005 98.3636 62.4067 97.8716C61.3656 96.835 60.1963 96.065 58.8681 95.4488C58.6766 95.3599 58.6832 95.0407 58.8681 94.9498ZM102.555 48.7807C102.392 48.7063 102.51 48.4512 102.674 48.4979C107.031 49.7451 111.093 52.5448 113.52 56.4309C113.668 56.6679 113.691 57.0582 113.52 57.2929L113.441 57.3994C113.33 57.5451 113.22 57.6526 113.011 57.6852C112.617 57.7464 112.276 57.6436 112.049 57.2929C109.658 53.5889 106.594 50.6329 102.555 48.7807ZM131.721 49.5147C132.09 48.888 133.069 49.0142 133.263 49.7168L133.291 49.778C133.397 50.0175 133.349 50.0666 133.153 49.931C133.638 50.3321 133.858 50.9295 133.71 51.5719C132.908 55.0412 128.988 57.5186 125.571 57.1776C125.273 57.1479 125.232 56.7805 125.502 56.6709C126.817 56.1373 127.984 55.2706 128.922 54.2071C129.834 53.1734 130.218 51.9906 130.708 50.7422C130.892 50.2735 131.179 49.9361 131.582 49.7518C131.635 49.6779 131.682 49.5991 131.721 49.5147ZM112.288 47.2845L112.312 47.286C114.068 47.5134 115.587 48.3821 116.82 49.6549C118.007 50.8806 119.506 52.9032 119.377 54.7019C119.292 55.8944 117.601 56.5762 116.97 55.3557C116.593 54.6275 116.508 53.8293 116.244 53.0593C116.002 52.3535 115.668 51.6834 115.268 51.055C114.444 49.7601 113.312 48.6632 112.152 47.6735C112.016 47.5576 112.111 47.2851 112.288 47.2845ZM67.2545 46.7567C66.8652 46.3851 67.2701 45.7516 67.7653 45.877C70.3768 46.5399 72.9631 47.346 75.6782 47.4261C77.0344 47.466 78.3829 47.3588 79.7263 47.1829L80.4065 47.0923C81.4541 46.9552 82.5197 46.8476 83.5552 47.0633C84.2455 47.2071 84.3804 48.0986 83.9502 48.5638C81.9188 50.7605 78.0006 50.5505 75.3065 50.1802C72.381 49.7778 69.4291 48.8334 67.2545 46.7567ZM114.414 39.9091C114.235 39.6605 114.536 39.2683 114.821 39.3785C117.416 40.3841 120.136 43.0022 120.851 45.7413C121.04 46.4649 120.13 47.0113 119.595 46.4742C118.599 45.4732 117.896 44.2909 117.054 43.1657C116.215 42.0442 115.233 41.048 114.414 39.9091ZM71.8906 41.1323C71.6825 40.9239 71.8919 40.5087 72.191 40.6148C73.8807 41.2147 75.5832 41.7337 77.3583 42.0061C79.1765 42.2847 81.0118 42.073 82.8394 42.1859C83.5787 42.2315 84.0822 43.3845 83.2603 43.7434C79.6082 45.3374 74.6477 43.892 71.8906 41.1323ZM76.5572 37.5573C76.2669 37.342 76.4321 36.7512 76.8271 36.916C78.4362 37.5877 80.0635 37.7528 81.7904 37.6837C82.4282 37.6579 82.5624 38.6628 81.9408 38.7984C80.0319 39.2147 78.1172 38.7135 76.5572 37.5573Z" fill="black"/>
<path fill-rule="evenodd" clip-rule="evenodd" d="M105.955 115.581C104.476 114.977 103.156 113.97 102.191 112.684C101.856 112.236 101.769 111.764 101.839 111.332C101.918 110.847 102.206 110.407 102.597 110.111C102.99 109.815 103.482 109.669 103.957 109.744C104.37 109.808 104.781 110.034 105.106 110.503L105.174 110.597C105.748 111.374 106.495 112.011 107.347 112.421C108.168 112.817 109.086 113.002 110.036 112.894C111.846 112.69 113.093 111.711 114.419 110.381C114.583 110.213 114.748 110.04 114.913 109.864C115.017 109.705 115.162 109.602 115.323 109.549C115.501 109.489 115.703 109.492 115.888 109.557C116.067 109.619 116.226 109.737 116.333 109.894C116.435 110.043 116.492 110.228 116.474 110.44C116.352 111.818 115.632 113.048 114.609 114.013C113.473 115.086 111.967 115.827 110.55 116.088C108.988 116.374 107.396 116.169 105.955 115.581ZM111.287 94.3246C112.948 95.335 115.48 97.6912 113.693 100.196C111.588 102.405 108.559 99.8724 107.066 98.7271C105.682 97.8394 104.126 100.122 105.411 101.159C116.198 109.149 120.576 94.5888 112.127 93.1366C111.197 92.9766 110.851 94.012 111.287 94.3246ZM91.9552 85.03C92.1387 82.7502 95.6095 82.2325 95.9548 84.4885C96.2639 86.5093 95.9 88.3657 94.9901 90.1851C94.1207 91.9233 91.9355 91.1124 91.7702 89.5296C91.5487 87.408 91.8409 86.4482 91.9552 85.03ZM118.375 84.0209C118.859 83.3869 119.558 82.9542 120.395 83.1987C123.01 83.9633 122.239 87.6776 121.321 89.4856C120.822 90.4674 119.208 90.7163 118.479 89.8519C117.291 88.4421 116.722 85.6268 118.233 84.2382C118.274 84.1664 118.319 84.094 118.375 84.0209ZM94.9533 75.0546L95.3664 74.9823C96.6444 74.7612 98.2334 74.5487 99.1375 75.5766C99.617 76.1216 99.782 77.1347 99.1375 77.6564C98.0038 78.5744 96.7504 78.2186 95.3918 78.2963C94.2722 78.3606 93.1962 78.546 92.1177 78.8544C89.7518 79.5309 87.8239 80.7658 85.8032 82.1218C85.538 82.2997 85.2674 81.9605 85.3939 81.7124C86.5604 79.4267 88.821 77.5492 91.0853 76.4047C92.2938 75.7938 93.6163 75.2871 94.9533 75.0546ZM115.991 74.0306L116.307 74.0954C119.748 74.8149 124.219 76.2522 125.848 79.6334C125.91 80.1115 125.845 80.214 125.791 80.2809L125.773 80.3032C125.73 80.3604 125.694 80.4392 125.487 80.5042C125.43 80.4905 125.372 80.476 125.313 80.4606C124.566 80.2648 123.975 79.9951 123.403 79.7151L122.783 79.4094C122.063 79.0564 121.337 78.7162 120.568 78.4651C118.926 77.9293 117.237 77.5519 115.521 77.3504C115.15 77.3067 114.792 77.1812 114.509 76.9661C114.241 76.7619 114.037 76.4792 113.943 76.1035C113.822 75.6172 113.857 75.249 114.118 74.8103C114.314 74.4808 114.594 74.2525 114.917 74.1213C115.245 73.9877 115.619 73.9561 115.991 74.0306Z" fill="black"/>
<path fill-rule="evenodd" clip-rule="evenodd" d="M122.858 61.5295C124.13 61.0934 125.144 62.4167 124.9 63.5699C124.612 64.9282 123.195 66.0183 122.255 66.9757C121.269 67.9839 120.264 68.9723 119.22 69.9233C117.229 71.7418 115.165 73.4542 112.989 75.0502L112.323 75.538C110.328 76.9982 108.339 78.4244 106.202 79.6885C105.045 80.3709 103.876 81.0313 102.693 81.6675C102.27 81.8942 101.755 82.244 101.225 82.504C103.164 84.0009 104.655 86.2859 104.979 88.4146C105.78 93.7023 102.374 98.6025 97.5674 100.551C95.1713 101.521 92.5043 101.803 89.943 101.51C87.3376 101.213 84.697 100.443 83.0048 98.3075C81.5019 96.4121 80.9606 93.9931 80.8527 91.6176C80.8021 90.4905 80.8131 89.3808 81.0508 88.3838C80.0143 88.3926 78.9779 88.3882 77.9503 88.3992C75.4109 88.4234 72.8669 88.4346 70.3256 88.364C67.7048 88.2891 65.0972 88.1725 62.4852 87.9393C61.3388 87.8357 60.1989 87.6662 59.0589 87.5033C57.9522 87.347 56.731 87.2875 55.6967 86.834C55.6263 86.8054 55.6555 86.7042 55.7165 86.6841C56.819 86.3277 58.0711 86.3914 59.2197 86.3211L60.3393 86.2532C61.2717 86.1975 62.2036 86.1462 63.1388 86.1162C65.2991 86.0451 67.4578 86.0276 69.6177 85.9906L70.5434 85.9733C73.085 85.9227 75.6266 85.8941 78.1681 85.8126C79.2222 85.7796 80.2784 85.718 81.3368 85.6607C81.4601 85.3809 81.6407 85.1256 81.8144 84.877C82.3337 84.133 82.9938 83.477 83.6782 82.8826C85.0797 81.6584 86.6576 80.7495 88.418 80.1397C90.1625 79.5375 92.714 79.2388 94.5595 79.2776C96.4051 79.3165 99.0352 79.5769 99.8804 81.0863C99.9684 81.2426 101.577 80.941 102.054 80.5754C103.17 79.7237 104.266 78.8475 105.342 77.9494C107.34 76.2786 109.395 74.6342 111.288 72.8467C113.24 71.0019 115.176 69.1264 117.033 67.1892C117.966 66.2184 118.897 65.2454 119.801 64.2504C120.726 63.2356 121.52 61.9852 122.858 61.5295Z" fill="black"/>
</g>
</svg>
