<svg width="462" height="448" viewBox="0 0 462 448" fill="none" xmlns="http://www.w3.org/2000/svg">
<circle cx="245.143" cy="231" r="216.857" fill="#E5E6EB"/>
<mask id="mask0" mask-type="alpha" maskUnits="userSpaceOnUse" x="28" y="14" width="434" height="434">
<circle cx="245.143" cy="231" r="216.857" fill="#CECACA"/>
</mask>
<g mask="url(#mask0)">
<path d="M433.012 384.501C433.9 384.252 443.108 366.725 443.108 366.725C443.108 366.725 442.646 351.901 442.681 344.649C442.717 337.396 448.298 336.188 449.791 339.743C451.028 344.42 451.978 349.169 452.636 353.963C452.92 353.963 461.274 330.251 463.301 329.078C465.327 327.904 487.084 339.316 488.186 346.639C488.719 350.195 485.057 362.033 480.863 373.267C479.689 376.431 468.704 383.221 468.704 383.221C466.42 387.843 463.681 392.225 460.528 396.303L433.012 384.501Z" fill="#FFC9B0"/>
<path d="M460.67 399.787C460.193 399.787 459.722 399.69 459.283 399.503L431.661 387.771C431.113 387.538 430.632 387.17 430.263 386.702C429.895 386.234 429.649 385.68 429.55 385.093C429.451 384.505 429.501 383.902 429.696 383.339C429.891 382.776 430.224 382.271 430.665 381.87C431.803 380.306 435.927 372.805 439.553 365.872C439.553 362.317 439.126 350.87 439.162 344.542C439.197 338.214 442.717 334.979 445.774 334.339C447.265 334.027 448.817 334.247 450.162 334.962C451.507 335.676 452.558 336.84 453.133 338.25C453.498 339.062 453.784 339.907 453.986 340.774C458.892 328.367 460.137 326.554 461.843 325.807C462.945 325.238 464.616 324.385 472.508 328.509C476.703 330.642 490.497 338.25 491.67 345.964C492.416 350.87 488.115 364.13 484.133 374.405C482.853 377.96 475.921 382.759 471.406 385.638C469.093 390.231 466.305 394.568 463.087 398.579C462.472 399.284 461.603 399.719 460.67 399.787ZM438.38 382.901L459.71 391.895C461.98 388.589 464.023 385.133 465.825 381.55C466.117 380.969 466.575 380.486 467.14 380.164C471.065 377.901 474.655 375.101 477.805 371.845C483.493 356.7 485.164 348.737 484.915 346.96C484.346 343.085 470.695 334.588 465.185 332.739C463.301 336.295 459.674 346 458.075 349.91C455.551 356.487 455.231 357.34 452.564 357.234C449.898 357.127 449.187 354.745 448.689 351.19C448.291 347.979 447.685 344.796 446.876 341.663C446.422 342.539 446.213 343.522 446.272 344.507C446.272 351.617 446.699 366.299 446.699 366.477C446.73 367.082 446.595 367.685 446.308 368.219C442.504 375.578 440.122 380.093 438.38 382.901Z" fill="#093F68"/>
<path d="M459.212 374.155C458.305 374.157 457.432 373.812 456.771 373.19C456.11 372.569 455.712 371.719 455.657 370.813C455.604 365.507 453.692 360.387 450.254 356.344C449.592 355.678 449.22 354.777 449.22 353.838C449.22 352.899 449.592 351.998 450.254 351.332C450.918 350.68 451.812 350.315 452.742 350.315C453.673 350.315 454.566 350.68 455.231 351.332C460.021 356.604 462.725 363.442 462.838 370.564C462.84 371.471 462.495 372.345 461.874 373.006C461.252 373.667 460.402 374.065 459.497 374.119L459.212 374.155Z" fill="#093F68"/>
<path d="M471.264 402.134C467.709 407.395 438.593 456.775 396.359 477.43C385.575 482.775 373.699 485.549 361.662 485.535C352.419 485.535 340.332 478.745 329.987 471.777C324.37 467.902 319.322 463.992 315.767 461.112C312.212 458.232 310.292 456.348 310.292 456.348V475.368L310.079 547.642H181.884V449.416C150.244 457.699 122.195 469.36 116.862 477.359C113.059 485.784 119.564 514.224 134.389 539.892L86.0759 567.55C79.2858 555.854 46.4372 495.027 66.9498 452.793C76.9394 432.245 102.216 418.416 144.201 402.489C194.824 383.292 244.95 390.687 274.208 390.367C294.13 390.201 313.379 397.566 328.103 410.986C341.185 422.789 358.392 433.952 371.936 427.375C396.822 415.181 421.956 384.146 429.492 373.196L471.264 402.134Z" fill="#5784BA"/>
<path d="M86.1112 571.104C85.4883 571.111 84.8746 570.953 84.3318 570.647C83.789 570.341 83.3361 569.898 83.0184 569.362C75.9083 557.346 42.3843 495.204 63.75 451.229C74.664 428.761 102.144 414.647 142.956 399.183C183.768 383.719 224.153 385.212 253.66 386.314C261.126 386.598 268.2 386.883 274.173 386.811C294.988 386.598 315.111 394.283 330.484 408.319C342.074 418.771 358.391 430.005 370.372 424.175C394.653 412.301 419.68 381.159 426.541 371.169C426.808 370.779 427.15 370.446 427.547 370.19C427.943 369.934 428.387 369.759 428.852 369.676C429.309 369.586 429.779 369.593 430.232 369.698C430.685 369.802 431.112 370 431.483 370.281L473.255 399.112C474.032 399.645 474.567 400.464 474.74 401.391C474.913 402.318 474.712 403.275 474.179 404.053C473.859 404.48 473.397 405.227 472.757 406.222C449.329 442.697 424.124 467.688 397.923 480.487C386.655 486.083 374.243 488.991 361.662 488.983C353.201 488.983 342.18 484.291 327.96 474.585C322.521 471.03 317.615 466.977 313.918 463.92L313.669 547.463C313.669 548.406 313.294 549.311 312.628 549.977C311.961 550.644 311.057 551.019 310.114 551.019H181.884C180.941 551.019 180.037 550.644 179.37 549.977C178.703 549.311 178.329 548.406 178.329 547.463V454.073C145.694 462.996 124.221 473.412 119.991 478.958C117.289 485.89 122.728 512.482 137.339 537.971C137.574 538.377 137.727 538.825 137.788 539.29C137.849 539.755 137.817 540.228 137.695 540.68C137.573 541.133 137.362 541.557 137.076 541.928C136.789 542.299 136.431 542.61 136.024 542.842L87.8532 570.607C87.3253 570.92 86.7251 571.092 86.1112 571.104ZM226.997 392.784C202.468 392.784 173.921 395.024 145.48 405.831C107.406 420.264 80.0321 434.058 70.1491 454.322C51.734 492.218 78.2546 546.113 87.4266 562.679L129.412 538.469C116.187 514.117 109.006 485.997 113.627 475.794C113.701 475.617 113.796 475.45 113.912 475.296C120.56 465.342 152.377 453.362 180.96 445.896C181.497 445.751 182.06 445.734 182.605 445.847C183.15 445.959 183.66 446.198 184.096 446.544C184.532 446.889 184.88 447.333 185.113 447.838C185.347 448.343 185.458 448.895 185.439 449.451V544.086H306.595L306.808 456.348C306.812 455.66 307.016 454.988 307.395 454.414C307.773 453.84 308.311 453.388 308.941 453.113C309.574 452.835 310.274 452.747 310.956 452.861C311.638 452.974 312.272 453.284 312.78 453.753C312.78 453.753 314.807 455.601 318.148 458.374C321.49 461.147 326.609 465.129 331.977 468.826C347.94 479.704 356.863 481.98 361.662 481.98C373.156 481.981 384.494 479.329 394.795 474.23C411.93 465.84 438.237 446.714 466.393 403.129L430.345 378.244C420.853 391.22 397.283 419.056 373.465 430.716C360.987 436.795 345.024 431.072 325.721 413.759C311.667 400.924 293.275 393.887 274.244 394.064C268.093 394.064 260.948 393.85 253.376 393.566C245.803 393.282 236.454 392.891 226.997 392.891V392.784Z" fill="#093F68"/>
<path d="M230.908 378.315H258.815V394.454C258.815 397.613 257.56 400.642 255.327 402.876C253.093 405.109 250.064 406.364 246.906 406.364H242.817C239.659 406.364 236.63 405.109 234.396 402.876C232.163 400.642 230.908 397.613 230.908 394.454V378.315Z" fill="#FFC9B0"/>
<path d="M247.048 409.919H242.817C238.716 409.919 234.783 408.29 231.882 405.389C228.982 402.489 227.353 398.556 227.353 394.454V378.315C227.353 377.372 227.728 376.468 228.394 375.801C229.061 375.134 229.965 374.76 230.908 374.76H258.815C259.758 374.76 260.662 375.134 261.329 375.801C261.996 376.468 262.37 377.372 262.37 378.315V394.454C262.37 398.531 260.761 402.443 257.891 405.339C255.022 408.236 251.125 409.881 247.048 409.919ZM234.463 381.87V394.454C234.463 396.67 235.343 398.795 236.91 400.362C238.477 401.929 240.602 402.809 242.817 402.809H247.048C249.264 402.809 251.389 401.929 252.955 400.362C254.522 398.795 255.402 396.67 255.402 394.454V381.87H234.463Z" fill="#093F68"/>
<path d="M146.192 305.472C146.192 305.472 121.306 200.207 130.549 183.392C139.792 166.577 154.333 172.94 154.333 172.94C154.333 172.94 174.027 116.06 217.541 113.785C261.055 111.509 282.492 141.016 306.844 137.568C331.196 134.119 342.785 125.374 342.785 125.374C346.87 133.193 348.554 142.045 347.624 150.818C346.694 159.591 343.193 167.893 337.559 174.682C337.559 174.682 355.548 163.662 357.858 189.151C360.169 214.641 344.527 302.912 344.527 302.912L327.107 299.891L146.192 305.472Z" fill="#F4CFDF"/>
<path d="M146.191 309.027C145.375 309.049 144.575 308.789 143.928 308.29C143.28 307.791 142.824 307.085 142.636 306.29C140.041 295.376 117.751 199.176 127.314 181.686C134.424 168.71 145.089 167.181 152.199 168.603C157.212 156.125 177.618 112.398 217.328 110.265C242.213 108.914 260.592 117.873 275.275 125.054C286.686 130.635 296.605 135.47 306.31 134.084C329.525 130.742 340.545 122.637 340.652 122.565C341.054 122.264 341.515 122.051 342.005 121.941C342.495 121.83 343.004 121.825 343.496 121.926C343.985 122.029 344.447 122.235 344.851 122.529C345.255 122.823 345.593 123.199 345.842 123.632C349.452 130.609 351.336 138.351 351.336 146.206C351.336 154.062 349.452 161.804 345.842 168.781C347.98 168.675 350.107 169.154 351.992 170.167C357.396 172.905 360.596 179.162 361.484 188.867C363.795 214.57 348.722 299.855 348.082 303.481C347.917 304.403 347.395 305.222 346.63 305.761C345.864 306.3 344.917 306.516 343.994 306.361L326.929 303.375L146.405 309.027H146.191ZM147.827 175.287C143.81 175.287 138.122 177.029 133.607 185.099C127.456 196.226 139.508 261.354 148.929 301.81L326.929 296.264C327.177 296.229 327.428 296.229 327.676 296.264L341.541 298.682C344.42 282.115 356.223 211.406 354.232 189.471C353.628 182.361 351.708 178.024 348.686 176.495C347.133 176.007 345.493 175.863 343.878 176.071C342.264 176.28 340.714 176.837 339.336 177.704C338.622 178.139 337.778 178.308 336.951 178.182C336.124 178.056 335.369 177.642 334.817 177.014C334.265 176.385 333.952 175.583 333.933 174.747C333.915 173.911 334.192 173.095 334.715 172.443C339.547 166.722 342.71 159.781 343.857 152.381C345.005 144.982 344.093 137.409 341.221 130.493C330.642 136.072 319.139 139.686 307.27 141.158C295.29 142.865 284.518 137.603 272.075 131.489C257.393 124.379 240.826 116.166 217.648 117.268C177.085 119.437 157.816 173.474 157.603 174.149C157.445 174.612 157.192 175.037 156.862 175.398C156.532 175.759 156.13 176.048 155.683 176.247C155.235 176.442 154.751 176.543 154.261 176.543C153.772 176.543 153.288 176.442 152.839 176.247C151.24 175.627 149.542 175.302 147.827 175.287Z" fill="#093F68"/>
<path d="M164.749 328.971C179.808 328.971 192.016 318.45 192.016 305.472C192.016 292.494 179.808 281.974 164.749 281.974C149.69 281.974 137.482 292.494 137.482 305.472C137.482 318.45 149.69 328.971 164.749 328.971Z" fill="#FFC9B0"/>
<path d="M164.749 332.49C147.791 332.49 133.962 320.368 133.962 305.472C133.962 290.576 147.791 278.418 164.749 278.418C181.706 278.418 195.571 290.541 195.571 305.472C195.571 320.403 181.742 332.49 164.749 332.49ZM164.749 285.528C151.702 285.528 141.072 294.487 141.072 305.472C141.072 316.457 151.737 325.38 164.749 325.38C177.76 325.38 188.461 316.457 188.461 305.472C188.461 294.487 177.831 285.528 164.749 285.528Z" fill="#093F68"/>
<path d="M323.659 328.971C338.718 328.971 350.926 318.45 350.926 305.472C350.926 292.494 338.718 281.974 323.659 281.974C308.6 281.974 296.392 292.494 296.392 305.472C296.392 318.45 308.6 328.971 323.659 328.971Z" fill="#FFC9B0"/>
<path d="M323.659 332.49C306.666 332.49 292.837 320.368 292.837 305.472C292.837 290.576 306.666 278.418 323.659 278.418C340.652 278.418 354.445 290.541 354.445 305.472C354.445 320.403 340.581 332.49 323.659 332.49ZM323.659 285.528C310.576 285.528 299.947 294.487 299.947 305.472C299.947 316.457 310.612 325.38 323.659 325.38C336.706 325.38 347.335 316.457 347.335 305.472C347.335 294.487 336.706 285.528 323.659 285.528Z" fill="#093F68"/>
<path d="M244.915 382.012C223.135 381.984 202.256 373.312 186.865 357.901C171.474 342.49 162.829 321.6 162.829 299.82V223.706C162.829 223.706 172.996 245.037 203.143 216.17C290.704 260.537 327.214 223.706 327.214 223.706V299.82C327.214 310.622 325.084 321.319 320.947 331.298C316.81 341.277 310.746 350.343 303.103 357.976C295.459 365.61 286.386 371.662 276.401 375.786C266.417 379.91 255.717 382.026 244.915 382.012Z" fill="#FFC9B0"/>
<path d="M244.915 385.567C222.2 385.511 200.434 376.455 184.382 360.383C168.331 344.312 159.302 322.534 159.274 299.82V223.706C159.261 222.89 159.53 222.094 160.035 221.452C160.54 220.81 161.251 220.362 162.048 220.182C162.844 220.003 163.679 220.103 164.41 220.467C165.142 220.83 165.726 221.434 166.064 222.178C166.829 223.572 167.891 224.782 169.175 225.722C170.459 226.662 171.933 227.309 173.494 227.617C178.293 228.435 186.897 226.693 200.512 213.61C201.043 213.103 201.717 212.773 202.443 212.665C203.168 212.557 203.91 212.676 204.565 213.006C248.541 235.26 278.901 236.256 296.605 233.163C315.589 229.857 324.441 221.253 324.547 221.182C325.047 220.689 325.682 220.355 326.372 220.222C327.062 220.089 327.775 220.163 328.422 220.436C329.065 220.708 329.613 221.163 329.999 221.745C330.385 222.326 330.59 223.009 330.591 223.706V299.82C330.563 322.54 321.529 344.323 305.47 360.396C289.411 376.469 267.635 385.52 244.915 385.567ZM166.384 232.381V299.926C166.412 320.774 174.706 340.759 189.447 355.5C204.189 370.241 224.174 378.535 245.021 378.564C265.869 378.535 285.854 370.241 300.595 355.5C315.336 340.759 323.631 320.774 323.659 299.926V230.852C309.901 239.562 272.288 254.422 203.783 220.436C191.802 231.456 181.208 236.22 172.285 234.656C170.2 234.25 168.202 233.48 166.384 232.381Z" fill="#093F68"/>
<path d="M206.876 286.287C211.077 286.287 214.484 282.881 214.484 278.679C214.484 274.478 211.077 271.072 206.876 271.072C202.674 271.072 199.268 274.478 199.268 278.679C199.268 282.881 202.674 286.287 206.876 286.287Z" fill="#093F68"/>
<path d="M285.371 286.287C289.573 286.287 292.979 282.881 292.979 278.679C292.979 274.478 289.573 271.072 285.371 271.072C281.17 271.072 277.763 274.478 277.763 278.679C277.763 282.881 281.17 286.287 285.371 286.287Z" fill="#093F68"/>
<path d="M274.919 324.395C275.058 328.42 274.385 332.431 272.94 336.19C271.496 339.95 269.309 343.379 266.511 346.276C263.713 349.172 260.36 351.475 256.653 353.048C252.946 354.621 248.96 355.432 244.932 355.432C240.905 355.432 236.919 354.621 233.212 353.048C229.505 351.475 226.152 349.172 223.354 346.276C220.556 343.379 218.369 339.95 216.925 336.19C215.48 332.431 214.807 328.42 214.946 324.395H274.919Z" fill="white"/>
<path d="M244.915 357.954C236.02 357.945 227.493 354.405 221.208 348.113C214.922 341.82 211.391 333.289 211.391 324.395C211.391 323.452 211.765 322.548 212.432 321.881C213.099 321.214 214.003 320.84 214.946 320.84H274.919C275.862 320.84 276.766 321.214 277.433 321.881C278.1 322.548 278.474 323.452 278.474 324.395C278.474 333.296 274.939 341.832 268.645 348.125C262.351 354.419 253.815 357.954 244.915 357.954ZM218.75 327.95C219.595 334.296 222.715 340.118 227.531 344.336C232.347 348.553 238.531 350.878 244.932 350.878C251.334 350.878 257.518 348.553 262.334 344.336C267.15 340.118 270.27 334.296 271.115 327.95H218.75Z" fill="#093F68"/>
<path d="M244.595 307.83C242.046 307.82 239.502 307.606 236.987 307.19C236.52 307.108 236.074 306.936 235.674 306.681C235.274 306.427 234.928 306.097 234.655 305.709C234.383 305.321 234.19 304.883 234.087 304.421C233.983 303.958 233.972 303.48 234.054 303.013C234.136 302.546 234.309 302.1 234.563 301.7C234.817 301.3 235.147 300.954 235.535 300.681C235.923 300.409 236.361 300.216 236.824 300.113C237.286 300.009 237.764 299.998 238.231 300.08C241.508 300.638 244.847 300.734 248.15 300.364C246.846 294.606 244.727 289.064 241.857 283.905C241.43 283.074 241.348 282.108 241.627 281.217C241.907 280.325 242.526 279.579 243.351 279.141C244.185 278.703 245.159 278.614 246.059 278.894C246.959 279.174 247.711 279.8 248.15 280.634C251.705 287.175 256.931 298.907 254.62 304.026C254.297 304.768 253.809 305.426 253.193 305.95C252.577 306.473 251.849 306.849 251.065 307.048C248.946 307.56 246.775 307.822 244.595 307.83Z" fill="#093F68"/>
<path d="M249.963 409.422H241.253C237.915 409.422 235.209 412.127 235.209 415.465V419.731C235.209 423.069 237.915 425.775 241.253 425.775H249.963C253.301 425.775 256.006 423.069 256.006 419.731V415.465C256.006 412.127 253.301 409.422 249.963 409.422Z" fill="white"/>
<path d="M249.963 429.329H241.253C238.707 429.329 236.266 428.318 234.466 426.518C232.666 424.718 231.654 422.276 231.654 419.731V415.465C231.654 412.919 232.666 410.478 234.466 408.677C236.266 406.877 238.707 405.866 241.253 405.866H249.963C252.509 405.866 254.95 406.877 256.75 408.677C258.55 410.478 259.561 412.919 259.561 415.465V419.731C259.561 422.276 258.55 424.718 256.75 426.518C254.95 428.318 252.509 429.329 249.963 429.329ZM241.253 412.976C240.593 412.976 239.96 413.238 239.493 413.705C239.027 414.172 238.764 414.805 238.764 415.465V419.731C238.764 420.391 239.027 421.024 239.493 421.49C239.96 421.957 240.593 422.219 241.253 422.219H249.963C250.623 422.219 251.256 421.957 251.722 421.49C252.189 421.024 252.451 420.391 252.451 419.731V415.465C252.451 414.805 252.189 414.172 251.722 413.705C251.256 413.238 250.623 412.976 249.963 412.976H241.253Z" fill="#093F68"/>
<path d="M239.653 425.774L226.535 500.11L245.59 525.137L259.917 498.901L251.563 425.774H239.653Z" fill="white"/>
<path d="M245.626 528.693C245.074 528.693 244.529 528.565 244.036 528.318C243.542 528.071 243.113 527.713 242.782 527.271L223.691 502.386C223.115 501.584 222.872 500.59 223.016 499.613L236.134 425.348C236.278 424.514 236.715 423.758 237.367 423.217C238.018 422.676 238.842 422.385 239.689 422.398H251.705C252.584 422.392 253.433 422.713 254.09 423.297C254.746 423.881 255.163 424.688 255.26 425.562L263.579 498.653C263.663 499.391 263.514 500.137 263.152 500.786L248.932 527.022C248.649 527.543 248.241 527.985 247.745 528.308C247.248 528.631 246.678 528.824 246.088 528.871L245.626 528.693ZM230.375 499.222L245.199 518.632L256.326 498.191L248.47 429.33H242.711L230.375 499.222Z" fill="#093F68"/>
<path d="M181.884 467.723C180.941 467.723 180.037 467.349 179.37 466.682C178.704 466.016 178.329 465.111 178.329 464.168C178.329 449.948 178.649 426.45 178.329 424.139C178.137 423.23 178.309 422.282 178.807 421.498C179.306 420.714 180.091 420.156 180.995 419.944C181.458 419.834 181.938 419.818 182.407 419.897C182.875 419.976 183.323 420.148 183.725 420.404C184.126 420.659 184.471 420.992 184.741 421.383C185.012 421.774 185.2 422.216 185.297 422.681C185.759 424.708 185.617 446.393 185.297 464.275C185.271 465.175 184.904 466.032 184.27 466.672C183.637 467.312 182.784 467.688 181.884 467.723Z" fill="#093F68"/>
<path d="M310.363 459.902C309.42 459.902 308.516 459.528 307.849 458.861C307.183 458.194 306.808 457.29 306.808 456.347V428.085C306.808 427.142 307.183 426.238 307.849 425.571C308.516 424.904 309.42 424.53 310.363 424.53C311.306 424.53 312.21 424.904 312.877 425.571C313.544 426.238 313.918 427.142 313.918 428.085V456.347C313.918 457.29 313.544 458.194 312.877 458.861C312.21 459.528 311.306 459.902 310.363 459.902Z" fill="#093F68"/>
<path d="M296.107 454.357H274.777C273.834 454.357 272.93 453.983 272.263 453.316C271.596 452.65 271.222 451.745 271.222 450.802C271.222 449.86 271.596 448.955 272.263 448.289C272.93 447.622 273.834 447.247 274.777 447.247H296.107C297.05 447.247 297.954 447.622 298.621 448.289C299.288 448.955 299.662 449.86 299.662 450.802C299.662 451.745 299.288 452.65 298.621 453.316C297.954 453.983 297.05 454.357 296.107 454.357Z" fill="#093F68"/>
</g>
<path d="M60.1282 30.9318C52.9122 33.4094 46.976 38.652 43.6255 45.5064C40.275 52.3607 39.7846 60.2653 42.2622 67.4813C47.4135 82.4844 64.1843 81.4058 71.3543 98.7704L92.9378 91.3597C87.9289 73.2531 101.829 63.8009 96.6777 48.7978C94.2001 41.5818 88.9575 35.6457 82.1031 32.2951C75.2487 28.9446 67.3441 28.4542 60.1282 30.9318ZM93.936 129.397C101.298 126.869 102.216 122.091 102.079 119.362L81.3465 126.48C82.9158 128.722 86.5743 131.924 93.936 129.397ZM79.6867 122.697L101.064 115.357L94.1726 95.2851L72.7951 102.625L79.6867 122.697Z" fill="#5784BA"/>
</svg>
